<?xml version="1.0" encoding="UTF-8" standalone="no" ?>
<!DOCTYPE svg PUBLIC "-//W3C//DTD SVG 1.1//EN" "http://www.w3.org/Graphics/SVG/1.1/DTD/svg11.dtd">
<svg xmlns="http://www.w3.org/2000/svg" xmlns:xlink="http://www.w3.org/1999/xlink" version="1.1" width="600" height="400" viewBox="-3.33 -2.22 66.67 44.44" xml:space="preserve">
<desc>Created with Fabric.js 4.6.0</desc>
<defs>
</defs>
<g transform="matrix(1 0 0 1 5.84 22.09)"  >
<path style="stroke: rgb(0,0,0); stroke-width: 3; stroke-dasharray: none; stroke-linecap: round; stroke-dashoffset: 0; stroke-linejoin: round; stroke-miterlimit: 10; fill: none; fill-rule: nonzero; opacity: 1;"  transform=" translate(-5.84, -22.09)" d="M 5.441444444444444 12.319221544053818 Q 5.444444444444444 12.322221544053818 5.444444444444444 12.366667005750866 Q 5.444444444444444 12.411112467447914 5.488888210720486 12.455556233723957 Q 5.533331976996528 12.5 5.577779134114583 12.58888922797309 Q 5.622226291232638 12.677778455946179 5.66667005750868 12.76666768391927 Q 5.711113823784722 12.85555691189236 5.755557590060763 12.944444444444445 Q 5.8000013563368045 13.033331976996529 5.8000013563368045 13.077777438693577 Q 5.8000013563368045 13.122222900390625 5.8000013563368045 13.255555894639757 Q 5.8000013563368045 13.38888888888889 5.8000013563368045 13.522221883138021 Q 5.8000013563368045 13.655554877387154 5.8000013563368045 13.744444105360243 Q 5.8000013563368045 13.833333333333332 5.8000013563368045 13.922222561306423 Q 5.8000013563368045 14.011111789279514 5.8000013563368045 14.055555555555555 Q 5.8000013563368045 14.099999321831596 5.8000013563368045 14.188888549804688 Q 5.8000013563368045 14.277777777777779 5.8000013563368045 14.32222154405382 Q 5.8000013563368045 14.36666531032986 5.8000013563368045 14.455554538302952 Q 5.8000013563368045 14.544443766276043 5.8000013563368045 14.588889227973091 Q 5.8000013563368045 14.63333468967014 5.755557590060763 14.722222222222223 Q 5.711113823784722 14.811109754774307 5.711113823784722 14.944444444444445 Q 5.711113823784722 15.077779134114582 5.711113823784722 15.211112128363714 Q 5.711113823784722 15.344445122612846 5.711113823784722 15.433334350585938 Q 5.711113823784722 15.522223578559029 5.711113823784722 15.65555657280816 Q 5.711113823784722 15.788889567057293 5.711113823784722 15.966666327582466 Q 5.711113823784722 16.14444308810764 5.711113823784722 16.322221544053818 Q 5.711113823784722 16.5 5.755557590060763 16.63333299424913 Q 5.8000013563368045 16.766665988498264 5.8000013563368045 16.944444444444443 Q 5.8000013563368045 17.122222900390625 5.8000013563368045 17.299999660915798 Q 5.8000013563368045 17.47777642144097 5.8000013563368045 17.699998643663193 Q 5.8000013563368045 17.922220865885418 5.8000013563368045 18.099999321831596 Q 5.8000013563368045 18.27777777777778 5.8000013563368045 18.41111077202691 Q 5.8000013563368045 18.544443766276043 5.8000013563368045 18.72222222222222 Q 5.8000013563368045 18.900000678168404 5.8000013563368045 19.122222900390625 Q 5.8000013563368045 19.344445122612846 5.8000013563368045 19.477778116861977 Q 5.8000013563368045 19.61111111111111 5.8000013563368045 19.78888956705729 Q 5.8000013563368045 19.96666802300347 5.8000013563368045 20.144444783528645 Q 5.8000013563368045 20.322221544053818 5.8000013563368045 20.5 Q 5.8000013563368045 20.67777845594618 5.8000013563368045 20.900000678168404 Q 5.8000013563368045 21.122222900390625 5.8000013563368045 21.211112128363716 Q 5.8000013563368045 21.300001356336804 5.8000013563368045 21.433334350585938 Q 5.8000013563368045 21.566667344835068 5.844445122612846 21.7000003390842 Q 5.888888888888888 21.833333333333332 5.888888888888888 21.966666327582466 Q 5.888888888888888 22.099999321831596 5.888888888888888 22.233332316080727 Q 5.888888888888888 22.36666531032986 5.93333265516493 22.5 Q 5.977776421440972 22.63333468967014 5.977776421440972 22.766667683919273 Q 5.977776421440972 22.900000678168404 5.977776421440972 23.033333672417534 Q 5.977776421440972 23.166666666666664 5.977776421440972 23.344445122612846 Q 5.977776421440972 23.52222357855903 6.022223578559028 23.65555657280816 Q 6.066670735677083 23.78888956705729 6.066670735677083 23.92222256130642 Q 6.066670735677083 24.055555555555554 6.066670735677083 24.188888549804688 Q 6.066670735677083 24.322221544053818 6.111114501953125 24.54444376627604 Q 6.155558268229167 24.766665988498264 6.155558268229167 24.899998982747398 Q 6.155558268229167 25.03333197699653 6.155558268229167 25.166666666666664 Q 6.155558268229167 25.300001356336804 6.155558268229167 25.388888888888886 Q 6.155558268229167 25.47777642144097 6.155558268229167 25.566665649414062 Q 6.155558268229167 25.655554877387154 6.155558268229167 25.744444105360245 Q 6.155558268229167 25.833333333333332 6.155558268229167 25.922222561306423 Q 6.155558268229167 26.011111789279514 6.155558268229167 26.100001017252602 Q 6.155558268229167 26.188890245225693 6.155558268229167 26.27777777777778 Q 6.155558268229167 26.36666531032986 6.155558268229167 26.5 Q 6.155558268229167 26.63333468967014 6.155558268229167 26.766667683919273 Q 6.155558268229167 26.900000678168404 6.155558268229167 26.988889906141495 Q 6.155558268229167 27.077779134114582 6.155558268229167 27.211112128363716 Q 6.155558268229167 27.344445122612846 6.155558268229167 27.477778116861977 Q 6.155558268229167 27.61111111111111 6.155558268229167 27.744444105360245 Q 6.155558268229167 27.877777099609375 6.155558268229167 28.011110093858505 Q 6.155558268229167 28.14444308810764 6.155558268229167 28.233332316080727 Q 6.155558268229167 28.322221544053818 6.155558268229167 28.455556233723957 Q 6.155558268229167 28.588890923394096 6.155558268229167 28.677778455946182 Q 6.155558268229167 28.766665988498264 6.155558268229167 28.85555691189236 Q 6.155558268229167 28.944447835286457 6.155558268229167 29.03333536783854 Q 6.155558268229167 29.122222900390625 6.155558268229167 29.211110432942707 Q 6.155558268229167 29.29999796549479 6.155558268229167 29.388888888888886 Q 6.155558268229167 29.477779812282986 6.155558268229167 29.61111111111111 Q 6.155558268229167 29.744442409939236 6.200002034505208 29.833333333333336 Q 6.244445800781249 29.922224256727432 6.244445800781249 30.011111789279514 Q 6.244445800781249 30.099999321831596 6.244445800781249 30.188890245225693 Q 6.244445800781249 30.27778116861979 6.244445800781249 30.411112467447914 Q 6.244445800781249 30.54444376627604 6.244445800781249 30.633334689670136 Q 6.244445800781249 30.722225613064232 6.244445800781249 30.811113145616318 Q 6.244445800781249 30.900000678168404 6.244445800781249 30.988888210720486 Q 6.244445800781249 31.077775743272568 6.200002034505208 31.122222900390625 Q 6.155558268229167 31.166670057508682 6.111114501953125 31.255557590060764 Q 6.066670735677083 31.344445122612846 6.066670735677083 31.43333265516493 Q 6.066670735677083 31.52222018771701 6.022223578559028 31.566667344835068 Q 5.977776421440972 31.611114501953125 5.977776421440972 31.655558268229168 Q 5.977776421440972 31.70000203450521 5.977776421440972 31.74444580078125 Q 5.977776421440972 31.78888956705729 5.977776421440972 31.833333333333332 Q 5.977776421440972 31.877777099609375 5.93333265516493 31.833333333333332 L 5.885888888888888 31.78588956705729" stroke-linecap="round" />
</g>
<g transform="matrix(1 0 0 1 11.22 17.17)"  >
<path style="stroke: rgb(0,0,0); stroke-width: 3; stroke-dasharray: none; stroke-linecap: round; stroke-dashoffset: 0; stroke-linejoin: round; stroke-miterlimit: 10; fill: none; fill-rule: nonzero; opacity: 1;"  transform=" translate(-11.22, -17.17)" d="M 5.266669379340278 13.303001356336804 Q 5.266669379340278 13.300001356336804 5.31111314561632 13.211112128363714 Q 5.355556911892362 13.122222900390625 5.355556911892362 13.077777438693577 Q 5.355556911892362 13.033331976996529 5.355556911892362 12.988888210720486 Q 5.355556911892362 12.944444444444443 5.400000678168403 12.944444444444443 Q 5.444444444444444 12.944444444444443 5.444444444444444 12.900000678168402 Q 5.444444444444444 12.85555691189236 5.444444444444444 12.811111450195312 Q 5.444444444444444 12.766665988498264 5.488888210720486 12.766665988498264 Q 5.533331976996528 12.766665988498264 5.577779134114583 12.722222222222221 Q 5.622226291232638 12.677778455946179 5.622226291232638 12.63333299424913 Q 5.622226291232638 12.588887532552082 5.66667005750868 12.588887532552082 Q 5.711113823784722 12.588887532552082 5.755557590060763 12.588887532552082 Q 5.8000013563368045 12.588887532552082 5.844445122612846 12.544443766276041 Q 5.888888888888888 12.5 5.93333265516493 12.455556233723957 Q 5.977776421440972 12.411112467447914 6.022223578559028 12.366667005750866 Q 6.066670735677083 12.322221544053818 6.111114501953125 12.322221544053818 Q 6.155558268229167 12.322221544053818 6.200002034505208 12.322221544053818 Q 6.244445800781249 12.322221544053818 6.288889567057291 12.277777777777777 Q 6.333333333333333 12.233334011501736 6.377777099609375 12.233334011501736 Q 6.422220865885417 12.233334011501736 6.466668023003472 12.188888549804688 Q 6.511115180121528 12.14444308810764 6.55555894639757 12.14444308810764 Q 6.600002712673612 12.14444308810764 6.688890245225695 12.14444308810764 Q 6.777777777777778 12.14444308810764 6.82222154405382 12.099999321831596 Q 6.866665310329862 12.055555555555554 6.955556233723958 12.055555555555554 Q 7.0444471571180545 12.055555555555554 7.1777784559461795 12.011111789279513 Q 7.3111097547743045 11.966668023003471 7.355556911892361 11.966668023003471 Q 7.400004069010417 11.966668023003471 7.444447835286458 11.922222561306423 Q 7.488891601562499 11.877777099609375 7.577779134114583 11.877777099609375 Q 7.666666666666667 11.877777099609375 7.800001356336805 11.877777099609375 Q 7.933336046006944 11.877777099609375 8.022223578559027 11.877777099609375 Q 8.11111111111111 11.877777099609375 8.200002034505207 11.877777099609375 Q 8.288892957899304 11.877777099609375 8.377780490451388 11.877777099609375 Q 8.466668023003471 11.877777099609375 8.60000271267361 11.877777099609375 Q 8.73333740234375 11.877777099609375 8.822224934895834 11.877777099609375 Q 8.911112467447918 11.877777099609375 9.044447157118055 11.877777099609375 Q 9.177781846788193 11.877777099609375 9.266669379340277 11.877777099609375 Q 9.35555691189236 11.877777099609375 9.444444444444445 11.877777099609375 Q 9.533331976996529 11.877777099609375 9.711110432942709 11.922222561306423 Q 9.88888888888889 11.966668023003471 10.022223578559029 11.966668023003471 Q 10.155558268229168 11.966668023003471 10.288889567057293 11.966668023003471 Q 10.422220865885418 11.966668023003471 10.511111789279514 12.011111789279513 Q 10.60000271267361 12.055555555555554 10.733334011501736 12.055555555555554 Q 10.86666531032986 12.055555555555554 11.044443766276041 12.099999321831596 Q 11.222222222222221 12.14444308810764 11.400000678168402 12.188888549804688 Q 11.577779134114582 12.233334011501736 11.755557590060763 12.277777777777777 Q 11.933336046006943 12.322221544053818 12.066667344835068 12.366667005750866 Q 12.199998643663193 12.411112467447914 12.511111789279513 12.455556233723957 Q 12.822224934895832 12.5 12.955556233723957 12.58888922797309 Q 13.088887532552082 12.677778455946179 13.266665988498264 12.677778455946179 Q 13.444444444444446 12.677778455946179 13.577779134114584 12.722222222222221 Q 13.711113823784721 12.766665988498264 13.933336046006945 12.855555216471354 Q 14.155558268229168 12.944444444444443 14.288889567057293 12.944444444444443 Q 14.422220865885418 12.944444444444443 14.555555555555555 13.033333672417534 Q 14.688890245225693 13.122222900390625 14.822224934895832 13.166666666666666 Q 14.955559624565971 13.211110432942707 15.044447157118055 13.211110432942707 Q 15.13333468967014 13.211110432942707 15.31111314561632 13.299999660915798 Q 15.4888916015625 13.38888888888889 15.577779134114584 13.43333265516493 Q 15.666666666666668 13.477776421440971 15.755557590060764 13.52222188313802 Q 15.84444851345486 13.566667344835068 15.888892279730902 13.566667344835068 Q 15.933336046006943 13.566667344835068 16.02222357855903 13.655556572808159 Q 16.11111111111111 13.74444580078125 16.155554877387154 13.833333333333334 Q 16.199998643663193 13.922220865885418 16.24444580078125 14.055555555555555 Q 16.288892957899307 14.188890245225693 16.37778049045139 14.322223239474825 Q 16.46666802300347 14.455556233723957 16.555555555555557 14.58888922797309 Q 16.64444308810764 14.722222222222221 16.688890245225693 14.900000678168402 Q 16.73333740234375 15.077779134114582 16.77778116861979 15.211112128363714 Q 16.822224934895832 15.344445122612846 16.866668701171875 15.433334350585938 Q 16.911112467447918 15.522223578559029 16.95555623372396 15.61111111111111 Q 17 15.699998643663193 17 15.833333333333332 Q 17 15.966668023003471 17.04444376627604 16.055555555555557 Q 17.088887532552082 16.14444308810764 17.088887532552082 16.27777777777778 Q 17.088887532552082 16.411112467447918 17.133334689670136 16.544445461697048 Q 17.177781846788193 16.67777845594618 17.177781846788193 16.76666768391927 Q 17.177781846788193 16.85555691189236 17.177781846788193 17.077779134114582 Q 17.177781846788193 17.300001356336804 17.177781846788193 17.433334350585938 Q 17.177781846788193 17.566667344835068 17.177781846788193 17.7000003390842 Q 17.177781846788193 17.833333333333332 17.177781846788193 17.922222561306423 Q 17.177781846788193 18.011111789279514 17.177781846788193 18.100001017252602 Q 17.177781846788193 18.188890245225693 17.177781846788193 18.322223239474823 Q 17.177781846788193 18.455556233723957 17.177781846788193 18.544445461697048 Q 17.177781846788193 18.63333468967014 17.177781846788193 18.72222222222222 Q 17.177781846788193 18.811109754774304 17.177781846788193 18.899998982747395 Q 17.177781846788193 18.988888210720486 17.133334689670136 19.12222120496962 Q 17.088887532552082 19.25555419921875 17.04444376627604 19.34444342719184 Q 17 19.43333265516493 16.95555623372396 19.61111111111111 Q 16.911112467447918 19.788889567057293 16.866668701171875 19.922222561306423 Q 16.822224934895832 20.055555555555554 16.77778116861979 20.233334011501736 Q 16.73333740234375 20.411112467447918 16.644446478949654 20.5 Q 16.555555555555557 20.588887532552082 16.511111789279514 20.677776760525173 Q 16.46666802300347 20.766665988498264 16.37778049045139 20.855555216471352 Q 16.288892957899307 20.944444444444443 16.20000203450521 21.033333672417534 Q 16.11111111111111 21.122222900390625 15.977779812282986 21.255555894639755 Q 15.84444851345486 21.38888888888889 15.755557590060764 21.433332655164932 Q 15.666666666666668 21.47777642144097 15.577779134114584 21.52222188313802 Q 15.4888916015625 21.566667344835068 15.400000678168404 21.61111111111111 Q 15.311109754774307 21.655554877387154 15.13333468967014 21.700000339084202 Q 14.955559624565971 21.74444580078125 14.822224934895832 21.833333333333336 Q 14.688890245225693 21.922220865885418 14.555555555555555 21.966666327582466 Q 14.422220865885418 22.011111789279514 14.333333333333334 22.011111789279514 Q 14.24444580078125 22.011111789279514 14.11111111111111 22.055555555555557 Q 13.977776421440971 22.099999321831596 13.800001356336805 22.099999321831596 Q 13.62222629123264 22.099999321831596 13.533335367838543 22.144444783528645 Q 13.444444444444446 22.188890245225693 13.311113145616321 22.188890245225693 Q 13.177781846788196 22.188890245225693 13.088890923394098 22.188890245225693 Q 13 22.188890245225693 12.911112467447916 22.188890245225693 Q 12.822224934895832 22.188890245225693 12.644446478949652 22.233334011501736 Q 12.466668023003471 22.27777777777778 12.377780490451388 22.27777777777778 Q 12.288892957899304 22.27777777777778 12.200002034505207 22.322221544053818 Q 12.11111111111111 22.36666531032986 12.022223578559027 22.36666531032986 Q 11.933336046006943 22.36666531032986 11.800001356336805 22.36666531032986 Q 11.666666666666668 22.36666531032986 11.533335367838543 22.41111077202691 Q 11.400004069010418 22.455556233723957 11.31111314561632 22.455556233723957 Q 11.222222222222221 22.455556233723957 11.133334689670138 22.455556233723957 Q 11.044447157118054 22.455556233723957 10.866668701171873 22.455556233723957 Q 10.688890245225693 22.455556233723957 10.511111789279513 22.455556233723957 Q 10.333333333333332 22.455556233723957 10.200002034505207 22.455556233723957 Q 10.066670735677082 22.455556233723957 9.933336046006943 22.455556233723957 Q 9.800001356336804 22.455556233723957 9.711113823784721 22.455556233723957 Q 9.62222629123264 22.455556233723957 9.400004069010416 22.455556233723957 Q 9.177781846788193 22.455556233723957 9.044447157118055 22.455556233723957 Q 8.911112467447918 22.455556233723957 8.822224934895834 22.455556233723957 Q 8.73333740234375 22.455556233723957 8.644446478949652 22.455556233723957 Q 8.555555555555554 22.455556233723957 8.466668023003471 22.455556233723957 Q 8.37778049045139 22.455556233723957 8.288889567057291 22.455556233723957 Q 8.199998643663193 22.455556233723957 8.155554877387152 22.455556233723957 Q 8.11111111111111 22.455556233723957 8.06666734483507 22.455556233723957 Q 8.022223578559029 22.455556233723957 7.977779812282986 22.455556233723957 Q 7.933336046006944 22.455556233723957 7.888892279730903 22.455556233723957 Q 7.844448513454862 22.455556233723957 7.800001356336805 22.455556233723957 Q 7.755554199218749 22.455556233723957 7.711110432942708 22.455556233723957 Q 7.666666666666667 22.455556233723957 7.622222900390625 22.455556233723957 Q 7.577779134114583 22.455556233723957 7.4888916015625 22.455556233723957 L 7.397004069010417 22.455556233723957" stroke-linecap="round" />
</g>
<g transform="matrix(1 0 0 1 30.43 22.06)"  >
<path style="stroke: rgb(0,0,0); stroke-width: 3; stroke-dasharray: none; stroke-linecap: round; stroke-dashoffset: 0; stroke-linejoin: round; stroke-miterlimit: 10; fill: none; fill-rule: nonzero; opacity: 1;"  transform=" translate(-30.43, -22.06)" d="M 25.797001356336803 22.36666531032986 Q 25.800001356336804 22.36666531032986 25.75555759006076 22.36666531032986 Q 25.71111382378472 22.36666531032986 25.75555759006076 22.36666531032986 Q 25.800001356336804 22.36666531032986 25.844445122612846 22.36666531032986 Q 25.88888888888889 22.36666531032986 25.933332655164932 22.36666531032986 Q 25.97777642144097 22.36666531032986 26.02222357855903 22.36666531032986 Q 26.066670735677082 22.36666531032986 26.111114501953125 22.36666531032986 Q 26.155558268229168 22.36666531032986 26.24444580078125 22.36666531032986 Q 26.333333333333332 22.36666531032986 26.422224256727432 22.322221544053818 Q 26.51111518012153 22.27777777777778 26.60000271267361 22.233334011501736 Q 26.688890245225693 22.188890245225693 26.77777777777778 22.144444783528645 Q 26.86666531032986 22.099999321831596 26.955556233723957 22.055555555555557 Q 27.044447157118054 22.011111789279514 27.088890923394096 22.011111789279514 Q 27.13333468967014 22.011111789279514 27.177778455946182 21.966666327582466 Q 27.22222222222222 21.922220865885418 27.311113145616318 21.922220865885418 Q 27.400004069010418 21.922220865885418 27.44444783528646 21.877777099609375 Q 27.4888916015625 21.833333333333332 27.53333536783854 21.833333333333332 Q 27.577779134114582 21.833333333333332 27.622222900390625 21.833333333333332 Q 27.666666666666668 21.833333333333332 27.71111043294271 21.78888956705729 Q 27.75555419921875 21.74444580078125 27.800001356336807 21.74444580078125 Q 27.84444851345486 21.74444580078125 27.933336046006943 21.74444580078125 Q 28.02222357855903 21.74444580078125 28.066667344835068 21.74444580078125 Q 28.11111111111111 21.74444580078125 28.200002034505207 21.74444580078125 Q 28.288892957899304 21.74444580078125 28.46666802300347 21.74444580078125 Q 28.64444308810764 21.74444580078125 28.733334011501736 21.74444580078125 Q 28.822224934895832 21.74444580078125 28.955556233723957 21.74444580078125 Q 29.088887532552082 21.74444580078125 29.17777845594618 21.74444580078125 Q 29.266669379340275 21.74444580078125 29.35555691189236 21.74444580078125 Q 29.444444444444446 21.74444580078125 29.577779134114586 21.74444580078125 Q 29.711113823784725 21.74444580078125 29.800001356336807 21.74444580078125 Q 29.88888888888889 21.74444580078125 29.933332655164932 21.74444580078125 Q 29.977776421440975 21.74444580078125 30.06666734483507 21.74444580078125 Q 30.155558268229168 21.74444580078125 30.288889567057293 21.78888956705729 Q 30.422220865885418 21.833333333333332 30.511111789279514 21.833333333333332 Q 30.60000271267361 21.833333333333332 30.644446478949654 21.877777099609375 Q 30.688890245225696 21.922220865885418 30.733334011501736 21.922220865885418 Q 30.777777777777775 21.922220865885418 30.822221544053818 21.922220865885418 Q 30.86666531032986 21.922220865885418 31 21.966666327582466 Q 31.13333468967014 22.011111789279514 31.177778455946182 22.055555555555557 Q 31.222222222222225 22.099999321831596 31.31111314561632 22.099999321831596 Q 31.400004069010418 22.099999321831596 31.4888916015625 22.099999321831596 Q 31.577779134114582 22.099999321831596 31.666666666666664 22.144444783528645 Q 31.755554199218746 22.188890245225693 31.844445122612846 22.188890245225693 Q 31.933336046006946 22.188890245225693 31.977779812282982 22.188890245225693 Q 32.02222357855902 22.188890245225693 32.11111111111111 22.188890245225693 Q 32.19999864366319 22.188890245225693 32.28888956705729 22.188890245225693 Q 32.377780490451386 22.188890245225693 32.51111178927951 22.188890245225693 Q 32.644443088107636 22.188890245225693 32.73333401150173 22.188890245225693 Q 32.82222493489583 22.188890245225693 32.866668701171875 22.188890245225693 Q 32.911112467447914 22.188890245225693 32.955556233723954 22.188890245225693 Q 32.99999999999999 22.188890245225693 33.08889092339409 22.188890245225693 Q 33.17778184678819 22.188890245225693 33.22222561306423 22.188890245225693 Q 33.26666937934027 22.188890245225693 33.35555691189236 22.188890245225693 Q 33.44444444444444 22.188890245225693 33.48888821072048 22.188890245225693 Q 33.53333197699652 22.188890245225693 33.62222290039062 22.188890245225693 Q 33.711113823784714 22.188890245225693 33.8000013563368 22.188890245225693 Q 33.888888888888886 22.188890245225693 33.933332655164925 22.188890245225693 Q 33.977776421440964 22.188890245225693 34.02222357855902 22.188890245225693 Q 34.06667073567708 22.188890245225693 34.111114501953125 22.188890245225693 Q 34.155558268229164 22.188890245225693 34.200002034505204 22.188890245225693 Q 34.24444580078124 22.188890245225693 34.28888956705728 22.188890245225693 Q 34.33333333333333 22.188890245225693 34.422224256727425 22.188890245225693 Q 34.51111518012152 22.188890245225693 34.60000271267361 22.188890245225693 Q 34.68889024522569 22.188890245225693 34.77777777777777 22.188890245225693 Q 34.86666531032986 22.188890245225693 34.955556233723954 22.144444783528645 Q 35.04444715711805 22.099999321831596 35.08889092339409 22.099999321831596 L 35.133334689670136 22.099999321831596" stroke-linecap="round" />
</g>
<g transform="matrix(1 0 0 1 30.87 22.32)"  >
<path style="stroke: rgb(0,0,0); stroke-width: 3; stroke-dasharray: none; stroke-linecap: round; stroke-dashoffset: 0; stroke-linejoin: round; stroke-miterlimit: 10; fill: none; fill-rule: nonzero; opacity: 1;"  transform=" translate(-30.87, -22.32)" d="M 30.86666531032986 18.985888210720486 Q 30.86666531032986 18.988888210720486 30.86666531032986 19.033333672417534 Q 30.86666531032986 19.077779134114582 30.86666531032986 19.166666666666664 Q 30.86666531032986 19.25555419921875 30.86666531032986 19.38888888888889 Q 30.86666531032986 19.52222357855903 30.86666531032986 19.65555657280816 Q 30.86666531032986 19.788889567057293 30.86666531032986 20.011111789279514 Q 30.86666531032986 20.233334011501736 30.86666531032986 20.36666700575087 Q 30.86666531032986 20.5 30.86666531032986 20.58888922797309 Q 30.86666531032986 20.67777845594618 30.86666531032986 20.72222222222222 Q 30.86666531032986 20.766665988498264 30.86666531032986 20.855555216471352 Q 30.86666531032986 20.944444444444443 30.86666531032986 20.988888210720486 Q 30.86666531032986 21.03333197699653 30.86666531032986 21.077777438693577 Q 30.86666531032986 21.122222900390625 30.86666531032986 21.166666666666664 Q 30.86666531032986 21.211110432942707 30.86666531032986 21.255555894639755 Q 30.86666531032986 21.300001356336804 30.86666531032986 21.433334350585938 Q 30.86666531032986 21.566667344835068 30.86666531032986 21.65555657280816 Q 30.86666531032986 21.74444580078125 30.86666531032986 21.833333333333336 Q 30.86666531032986 21.922220865885418 30.86666531032986 22.011110093858505 Q 30.86666531032986 22.099999321831596 30.86666531032986 22.188888549804688 Q 30.86666531032986 22.27777777777778 30.86666531032986 22.41111077202691 Q 30.86666531032986 22.544443766276043 30.86666531032986 22.63333299424913 Q 30.86666531032986 22.72222222222222 30.86666531032986 22.855555216471352 Q 30.86666531032986 22.988888210720486 30.86666531032986 23.077777438693573 Q 30.86666531032986 23.166666666666664 30.86666531032986 23.299999660915795 Q 30.86666531032986 23.43333265516493 30.86666531032986 23.566665649414062 Q 30.86666531032986 23.699998643663193 30.86666531032986 23.833333333333332 Q 30.86666531032986 23.96666802300347 30.86666531032986 24.100001017252602 Q 30.86666531032986 24.233334011501736 30.86666531032986 24.36666700575087 Q 30.86666531032986 24.5 30.86666531032986 24.63333299424913 Q 30.86666531032986 24.766665988498264 30.86666531032986 24.811111450195312 Q 30.86666531032986 24.85555691189236 30.86666531032986 24.900000678168404 Q 30.86666531032986 24.944444444444443 30.86666531032986 24.988888210720486 Q 30.86666531032986 25.03333197699653 30.86666531032986 25.077777438693577 Q 30.86666531032986 25.122222900390625 30.86666531032986 25.166666666666664 Q 30.86666531032986 25.211110432942707 30.86666531032986 25.255555894639755 Q 30.86666531032986 25.300001356336804 30.86666531032986 25.344445122612846 Q 30.86666531032986 25.38888888888889 30.86666531032986 25.433332655164932 Q 30.86666531032986 25.47777642144097 30.86666531032986 25.566665649414062 L 30.86666531032986 25.658554877387154" stroke-linecap="round" />
</g>
<g transform="matrix(1 0 0 1 42.16 13.79)"  >
<path style="stroke: rgb(0,0,0); stroke-width: 3; stroke-dasharray: none; stroke-linecap: round; stroke-dashoffset: 0; stroke-linejoin: round; stroke-miterlimit: 10; fill: none; fill-rule: nonzero; opacity: 1;"  transform=" translate(-42.16, -13.79)" d="M 42.152558268229164 13.833333333333332 Q 42.155558268229164 13.833333333333332 42.155558268229164 13.788889567057291 L 42.158558268229164 13.74444580078125" stroke-linecap="round" />
</g>
<g transform="matrix(1 0 0 1 41.44 22.19)"  >
<path style="stroke: rgb(0,0,0); stroke-width: 3; stroke-dasharray: none; stroke-linecap: round; stroke-dashoffset: 0; stroke-linejoin: round; stroke-miterlimit: 10; fill: none; fill-rule: nonzero; opacity: 1;"  transform=" translate(-41.44, -22.19)" d="M 42.155558268229164 13.830333333333332 Q 42.155558268229164 13.833333333333332 42.06666734483507 13.788889567057291 Q 41.977776421440964 13.74444580078125 41.977776421440964 13.788889567057291 Q 41.977776421440964 13.833333333333332 41.977776421440964 13.877777099609375 Q 41.977776421440964 13.922220865885418 41.977776421440964 13.966666327582466 Q 41.977776421440964 14.011111789279514 41.977776421440964 14.100001017252604 Q 41.977776421440964 14.188890245225693 42.02222357855902 14.322223239474825 Q 42.06667073567708 14.455556233723957 42.111114501953125 14.58888922797309 Q 42.155558268229164 14.722222222222221 42.155558268229164 14.855555216471354 Q 42.155558268229164 14.988888210720486 42.155558268229164 15.166666666666666 Q 42.155558268229164 15.344445122612846 42.155558268229164 15.477778116861979 Q 42.155558268229164 15.61111111111111 42.155558268229164 15.744444105360243 Q 42.155558268229164 15.877777099609375 42.155558268229164 15.966666327582464 Q 42.155558268229164 16.055555555555554 42.155558268229164 16.188888549804688 Q 42.155558268229164 16.322221544053818 42.155558268229164 16.45555453830295 Q 42.155558268229164 16.588887532552082 42.111114501953125 16.76666598849826 Q 42.06667073567708 16.944444444444443 42.06667073567708 17.077777438693573 Q 42.06667073567708 17.211110432942707 42.02222357855902 17.34444342719184 Q 41.977776421440964 17.47777642144097 41.933332655164925 17.699998643663193 Q 41.888888888888886 17.922220865885418 41.888888888888886 18.055555555555557 Q 41.888888888888886 18.188890245225693 41.888888888888886 18.322223239474823 Q 41.888888888888886 18.455556233723957 41.888888888888886 18.58888922797309 Q 41.888888888888886 18.72222222222222 41.933332655164925 18.855555216471352 Q 41.977776421440964 18.988888210720486 41.977776421440964 19.12222120496962 Q 41.977776421440964 19.25555419921875 42.02222357855902 19.47777642144097 Q 42.06667073567708 19.699998643663193 42.06667073567708 19.833333333333332 Q 42.06667073567708 19.96666802300347 42.06667073567708 20.100001017252602 Q 42.06667073567708 20.233334011501736 42.06667073567708 20.5 Q 42.06667073567708 20.766665988498264 42.06667073567708 20.944444444444443 Q 42.06667073567708 21.122222900390625 42.06667073567708 21.344445122612846 Q 42.06667073567708 21.566667344835068 42.06667073567708 21.833333333333332 Q 42.06667073567708 22.099999321831596 42.02222357855902 22.322221544053818 Q 41.977776421440964 22.544443766276043 41.888888888888886 22.766665988498264 Q 41.8000013563368 22.988888210720486 41.711113823784714 23.211110432942707 Q 41.622226291232636 23.43333265516493 41.57777913411458 23.611111111111107 Q 41.53333197699652 23.78888956705729 41.48888821072048 23.966666327582466 Q 41.44444444444444 24.14444308810764 41.4000006781684 24.27777777777778 Q 41.35555691189236 24.411112467447914 41.31111314561632 24.633334689670136 Q 41.26666937934027 24.85555691189236 41.22222561306423 24.944444444444443 Q 41.17778184678819 25.03333197699653 41.133334689670136 25.12222120496962 Q 41.08888753255208 25.211110432942707 41.08888753255208 25.255555894639755 Q 41.08888753255208 25.300001356336804 41.04444376627603 25.344445122612846 Q 40.99999999999999 25.38888888888889 40.99999999999999 25.477778116861977 Q 40.99999999999999 25.566667344835068 40.955556233723954 25.65555657280816 Q 40.911112467447914 25.74444580078125 40.911112467447914 25.833333333333332 Q 40.911112467447914 25.922220865885414 40.866668701171875 26.099999321831596 Q 40.82222493489583 26.27777777777778 40.77778116861978 26.36666700575087 Q 40.73333740234374 26.455556233723957 40.73333740234374 26.544445461697048 Q 40.73333740234374 26.63333468967014 40.73333740234374 26.677778455946182 Q 40.73333740234374 26.72222222222222 40.73333740234374 26.76666598849826 Q 40.73333740234374 26.811109754774304 40.73333740234374 26.855555216471352 Q 40.73333740234374 26.900000678168404 40.73333740234374 26.944444444444443 Q 40.73333740234374 26.988888210720486 40.73333740234374 27.077777438693573 Q 40.73333740234374 27.166666666666664 40.73333740234374 27.255555894639755 Q 40.73333740234374 27.344445122612846 40.73333740234374 27.433334350585938 Q 40.73333740234374 27.52222357855903 40.73333740234374 27.65555657280816 Q 40.73333740234374 27.78888956705729 40.77778116861978 27.87777879503038 Q 40.82222493489583 27.96666802300347 40.82222493489583 28.01111178927951 Q 40.82222493489583 28.055555555555554 40.82222493489583 28.099999321831596 Q 40.82222493489583 28.14444308810764 40.866668701171875 28.233332316080727 Q 40.911112467447914 28.322221544053818 40.911112467447914 28.411112467447914 Q 40.911112467447914 28.500003390842014 40.955556233723954 28.544447157118057 Q 40.99999999999999 28.588890923394096 40.99999999999999 28.677778455946182 Q 40.99999999999999 28.766665988498264 41.04444376627603 28.85555691189236 Q 41.08888753255208 28.944447835286457 41.133334689670136 29.03333536783854 Q 41.17778184678819 29.122222900390625 41.22222561306423 29.211110432942707 Q 41.26666937934027 29.29999796549479 41.31111314561632 29.388888888888886 Q 41.35555691189236 29.477779812282986 41.4000006781684 29.566667344835068 Q 41.44444444444444 29.655554877387154 41.44444444444444 29.699998643663193 Q 41.44444444444444 29.744442409939236 41.48888821072048 29.78888956705729 Q 41.53333197699652 29.833336724175346 41.53333197699652 29.87778049045139 Q 41.53333197699652 29.922224256727432 41.57777913411458 29.96666802300347 Q 41.622226291232636 30.01111178927951 41.622226291232636 30.055555555555554 Q 41.622226291232636 30.099999321831596 41.666670057508675 30.188890245225693 Q 41.711113823784714 30.27778116861979 41.711113823784714 30.322224934895832 Q 41.711113823784714 30.366668701171875 41.75555759006076 30.411112467447918 Q 41.8000013563368 30.45555623372396 41.8000013563368 30.5 Q 41.8000013563368 30.54444376627604 41.8000013563368 30.588887532552082 Q 41.8000013563368 30.633331298828125 41.711113823784714 30.544443766276043 L 41.619226291232636 30.45255623372396" stroke-linecap="round" />
</g>
<g transform="matrix(1 0 0 1 48.16 22.01)"  >
<path style="stroke: rgb(0,0,0); stroke-width: 3; stroke-dasharray: none; stroke-linecap: round; stroke-dashoffset: 0; stroke-linejoin: round; stroke-miterlimit: 10; fill: none; fill-rule: nonzero; opacity: 1;"  transform=" translate(-48.16, -22.01)" d="M 42.24444580078124 13.836333333333332 Q 42.24444580078124 13.833333333333332 42.28888956705728 13.833333333333332 Q 42.33333333333333 13.833333333333332 42.33333333333333 13.788889567057291 Q 42.33333333333333 13.74444580078125 42.377777099609375 13.74444580078125 Q 42.422220865885414 13.74444580078125 42.422220865885414 13.700000339084202 Q 42.422220865885414 13.655554877387154 42.466668023003464 13.61111111111111 Q 42.51111518012152 13.566667344835068 42.55555894639757 13.52222188313802 Q 42.60000271267361 13.477776421440971 42.64444647894965 13.477776421440971 Q 42.68889024522569 13.477776421440971 42.73333401150173 13.43333265516493 Q 42.77777777777777 13.38888888888889 42.82222154405382 13.344445122612846 Q 42.86666531032986 13.300001356336804 42.91111246744791 13.255555894639755 Q 42.955559624565964 13.211110432942707 42.955559624565964 13.166666666666666 Q 42.955559624565964 13.122222900390625 43.00000339084201 13.122222900390625 Q 43.04444715711805 13.122222900390625 43.08889092339409 13.122222900390625 Q 43.133334689670136 13.122222900390625 43.177778455946175 13.122222900390625 Q 43.222222222222214 13.122222900390625 43.26666598849826 13.122222900390625 Q 43.3111097547743 13.122222900390625 43.35555691189236 13.122222900390625 Q 43.400004069010414 13.122222900390625 43.444447835286454 13.122222900390625 Q 43.48889160156249 13.122222900390625 43.53333536783853 13.077777438693577 Q 43.57777913411458 13.033331976996529 43.66666666666666 13.033331976996529 Q 43.75555419921874 13.033331976996529 43.84444512261284 13.033331976996529 Q 43.93333604600694 13.033331976996529 43.97777981228298 13.033331976996529 Q 44.02222357855902 13.033331976996529 44.11111111111111 13.033331976996529 Q 44.19999864366319 13.033331976996529 44.28888956705729 13.033331976996529 Q 44.377780490451386 13.033331976996529 44.466668023003464 12.988888210720486 Q 44.55555555555555 12.944444444444443 44.68889024522569 12.944444444444443 Q 44.82222493489583 12.944444444444443 44.91111246744791 12.944444444444443 Q 44.99999999999999 12.944444444444443 45.08889092339409 12.900000678168402 Q 45.17778184678819 12.85555691189236 45.26666937934027 12.85555691189236 Q 45.35555691189236 12.85555691189236 45.4888916015625 12.85555691189236 Q 45.622226291232636 12.85555691189236 45.666670057508675 12.811111450195312 Q 45.711113823784714 12.766665988498264 45.8000013563368 12.766665988498264 Q 45.888888888888886 12.766665988498264 45.97777981228298 12.766665988498264 Q 46.06667073567708 12.766665988498264 46.15555826822916 12.766665988498264 Q 46.24444580078124 12.766665988498264 46.33333333333333 12.766665988498264 Q 46.422220865885414 12.766665988498264 46.51111178927951 12.766665988498264 Q 46.60000271267361 12.766665988498264 46.68889024522569 12.766665988498264 Q 46.77777777777777 12.766665988498264 46.86666870117187 12.766665988498264 Q 46.955559624565964 12.766665988498264 47.133334689670136 12.766665988498264 Q 47.3111097547743 12.766665988498264 47.4000006781684 12.766665988498264 Q 47.48889160156249 12.766665988498264 47.62222290039062 12.811111450195312 Q 47.75555419921874 12.85555691189236 47.84444512261284 12.85555691189236 Q 47.933336046006936 12.85555691189236 48.02222357855902 12.85555691189236 Q 48.11111111111111 12.85555691189236 48.28888956705728 12.900000678168402 Q 48.466668023003464 12.944444444444443 48.6000027126736 12.944444444444443 Q 48.73333740234374 12.944444444444443 48.82222493489583 12.944444444444443 Q 48.911112467447914 12.944444444444443 49.04444715711805 12.988888210720486 Q 49.177781846788186 13.033331976996529 49.40000406901041 13.033331976996529 Q 49.622226291232636 13.033331976996529 49.75555759006076 13.033331976996529 Q 49.888888888888886 13.033331976996529 50.06666734483507 13.077777438693577 Q 50.24444580078124 13.122222900390625 50.422224256727425 13.122222900390625 Q 50.60000271267361 13.122222900390625 50.68889024522569 13.122222900390625 Q 50.77777777777777 13.122222900390625 50.955556233723954 13.122222900390625 Q 51.133334689670136 13.122222900390625 51.177778455946175 13.122222900390625 Q 51.222222222222214 13.122222900390625 51.31111314561632 13.166666666666666 Q 51.400004069010414 13.211110432942707 51.53333536783854 13.211110432942707 Q 51.666666666666664 13.211110432942707 51.75555759006076 13.255555894639755 Q 51.84444851345486 13.300001356336804 51.93333604600694 13.300001356336804 Q 52.02222357855902 13.300001356336804 52.1111111111111 13.344445122612846 Q 52.199998643663186 13.38888888888889 52.28888956705728 13.43333265516493 Q 52.377780490451386 13.477776421440971 52.466668023003464 13.566665649414062 Q 52.55555555555555 13.655554877387154 52.59999932183159 13.700000339084202 Q 52.644443088107636 13.74444580078125 52.68889024522569 13.788889567057291 Q 52.73333740234374 13.833333333333332 52.82222493489583 13.877777099609375 Q 52.911112467447914 13.922220865885418 52.955556233723954 14.011110093858507 Q 52.99999999999999 14.099999321831596 53.133334689670136 14.233332316080729 Q 53.26666937934027 14.36666531032986 53.35555691189235 14.455554538302952 Q 53.444444444444436 14.544443766276043 53.488888210720475 14.633332994249132 Q 53.53333197699652 14.722222222222221 53.62222290039062 14.855555216471354 Q 53.711113823784714 14.988888210720486 53.75555759006076 15.122221204969618 Q 53.8000013563368 15.25555419921875 53.84444512261284 15.43333265516493 Q 53.888888888888886 15.61111111111111 53.933332655164925 15.744444105360243 Q 53.977776421440964 15.877777099609375 53.977776421440964 16.011110093858505 Q 53.977776421440964 16.14444308810764 54.02222357855902 16.27777777777778 Q 54.06667073567708 16.411112467447918 54.06667073567708 16.544445461697048 Q 54.06667073567708 16.67777845594618 54.06667073567708 16.76666768391927 Q 54.06667073567708 16.85555691189236 54.06667073567708 17.033333672417534 Q 54.06667073567708 17.211110432942707 54.06667073567708 17.388888888888886 Q 54.06667073567708 17.566667344835068 54.06667073567708 17.7000003390842 Q 54.06667073567708 17.833333333333332 54.02222357855902 18.01111178927951 Q 53.977776421440964 18.188890245225693 53.977776421440964 18.27777777777778 Q 53.977776421440964 18.36666531032986 53.933332655164925 18.455554538302952 Q 53.888888888888886 18.544443766276043 53.8000013563368 18.63333299424913 Q 53.711113823784714 18.72222222222222 53.62222290039062 18.855555216471352 Q 53.53333197699652 18.988888210720486 53.44444444444444 19.12222120496962 Q 53.35555691189236 19.25555419921875 53.222222222222214 19.34444342719184 Q 53.08888753255208 19.43333265516493 52.955556233723954 19.61111111111111 Q 52.82222493489583 19.788889567057293 52.68889024522569 19.87777879503038 Q 52.55555555555555 19.96666802300347 52.422224256727425 20.100001017252602 Q 52.2888929578993 20.233334011501736 52.15555826822916 20.36666700575087 Q 52.02222357855902 20.5 51.93333604600694 20.54444376627604 Q 51.84444851345486 20.588887532552082 51.8000013563368 20.63333299424913 Q 51.75555419921874 20.67777845594618 51.66666666666666 20.72222222222222 Q 51.57777913411458 20.766665988498264 51.44444444444444 20.811111450195312 Q 51.3111097547743 20.85555691189236 51.177778455946175 20.944444444444443 Q 51.04444715711805 21.03333197699653 50.955556233723954 21.077777438693577 Q 50.86666531032986 21.122222900390625 50.73333401150173 21.166666666666664 Q 50.60000271267361 21.211110432942707 50.466668023003464 21.255555894639755 Q 50.33333333333333 21.300001356336804 50.200002034505204 21.344445122612846 Q 50.06667073567708 21.38888888888889 49.97777981228298 21.433332655164932 Q 49.888888888888886 21.47777642144097 49.8000013563368 21.52222188313802 Q 49.711113823784714 21.566667344835068 49.48889160156249 21.65555657280816 Q 49.26666937934027 21.74444580078125 49.08889092339409 21.78888956705729 Q 48.911112467447914 21.833333333333332 48.77777777777777 21.877777099609375 Q 48.644443088107636 21.922220865885418 48.51111178927951 21.966666327582466 Q 48.377780490451386 22.011111789279514 48.24444580078125 22.055555555555557 Q 48.11111111111111 22.099999321831596 47.933332655164925 22.099999321831596 Q 47.75555419921874 22.099999321831596 47.66666666666666 22.144444783528645 Q 47.57777913411458 22.188890245225693 47.4000006781684 22.188890245225693 Q 47.222222222222214 22.188890245225693 47.133334689670136 22.233334011501736 Q 47.04444715711805 22.27777777777778 46.86666870117187 22.27777777777778 Q 46.688890245225686 22.27777777777778 46.6000027126736 22.322221544053818 Q 46.51111518012152 22.36666531032986 46.422224256727425 22.36666531032986 Q 46.33333333333333 22.36666531032986 46.200002034505204 22.36666531032986 Q 46.06667073567708 22.36666531032986 45.93333604600694 22.41111077202691 Q 45.8000013563368 22.455556233723957 45.622222900390625 22.455556233723957 Q 45.44444444444444 22.455556233723957 45.31111314561632 22.5 Q 45.17778184678819 22.544443766276043 45.08889092339409 22.544443766276043 Q 44.99999999999999 22.544443766276043 44.86666870117187 22.58888922797309 Q 44.73333740234374 22.63333468967014 44.6000027126736 22.63333468967014 Q 44.466668023003464 22.63333468967014 44.33333333333333 22.677778455946182 Q 44.19999864366319 22.72222222222222 44.11111111111111 22.72222222222222 Q 44.02222357855902 22.72222222222222 43.93333604600694 22.76666598849826 Q 43.84444851345486 22.811109754774304 43.8000013563368 22.811109754774304 Q 43.75555419921874 22.811109754774304 43.711110432942704 22.811109754774304 Q 43.666666666666664 22.811109754774304 43.622222900390625 22.811109754774304 Q 43.57777913411458 22.811109754774304 43.53333536783853 22.811109754774304 Q 43.48889160156249 22.811109754774304 43.53333536783853 22.811109754774304 Q 43.57777913411458 22.811109754774304 43.622222900390625 22.811109754774304 Q 43.666666666666664 22.811109754774304 43.711110432942704 22.811109754774304 Q 43.75555419921874 22.811109754774304 43.8000013563368 22.811109754774304 Q 43.84444851345486 22.811109754774304 43.93333604600694 22.811109754774304 Q 44.02222357855902 22.811109754774304 44.11111111111111 22.811109754774304 Q 44.19999864366319 22.811109754774304 44.33333333333333 22.811109754774304 Q 44.466668023003464 22.811109754774304 44.55555555555555 22.811109754774304 Q 44.644443088107636 22.811109754774304 44.73333401150173 22.811109754774304 Q 44.82222493489583 22.811109754774304 44.91111246744791 22.811109754774304 Q 44.99999999999999 22.811109754774304 45.177778455946175 22.855555216471352 Q 45.35555691189236 22.900000678168404 45.44444444444444 22.944444444444443 Q 45.53333197699652 22.988888210720486 45.57777913411458 22.988888210720486 Q 45.622226291232636 22.988888210720486 45.711113823784714 22.988888210720486 Q 45.8000013563368 22.988888210720486 45.93333604600694 23.077777438693573 Q 46.06667073567708 23.166666666666664 46.15555826822916 23.166666666666664 Q 46.24444580078124 23.166666666666664 46.33333333333333 23.211110432942707 Q 46.422220865885414 23.25555419921875 46.55555555555555 23.299999660915798 Q 46.688890245225686 23.344445122612846 46.82222493489583 23.388888888888886 Q 46.955559624565964 23.43333265516493 47.17778184678819 23.477778116861977 Q 47.400004069010414 23.52222357855903 47.53333536783854 23.566667344835068 Q 47.666666666666664 23.61111111111111 47.75555759006076 23.655554877387154 Q 47.84444851345486 23.699998643663193 47.93333604600694 23.699998643663193 Q 48.02222357855902 23.699998643663193 48.1111111111111 23.74444410536024 Q 48.199998643663186 23.78888956705729 48.33333333333333 23.833333333333332 Q 48.466668023003464 23.877777099609375 48.55555555555555 23.877777099609375 Q 48.644443088107636 23.877777099609375 48.68889024522569 23.922222561306423 Q 48.73333740234374 23.96666802300347 48.82222493489583 24.01111178927951 Q 48.911112467447914 24.055555555555554 49 24.099999321831596 Q 49.08888753255208 24.14444308810764 49.133334689670136 24.188888549804688 Q 49.177781846788186 24.233334011501736 49.222225613064225 24.27777777777778 Q 49.26666937934027 24.322221544053818 49.35555691189235 24.41111077202691 Q 49.444444444444436 24.5 49.488888210720475 24.58888922797309 Q 49.53333197699652 24.67777845594618 49.62222290039062 24.855555216471352 Q 49.711113823784714 25.03333197699653 49.711113823784714 25.077777438693577 Q 49.711113823784714 25.122222900390625 49.711113823784714 25.166666666666664 Q 49.711113823784714 25.211110432942707 49.711113823784714 25.299999660915798 Q 49.711113823784714 25.38888888888889 49.711113823784714 25.522221883138023 Q 49.711113823784714 25.655554877387154 49.75555759006076 25.744444105360245 Q 49.8000013563368 25.833333333333332 49.8000013563368 25.922222561306423 Q 49.8000013563368 26.011111789279514 49.8000013563368 26.144444783528648 Q 49.8000013563368 26.27777777777778 49.8000013563368 26.36666700575087 Q 49.8000013563368 26.455556233723957 49.8000013563368 26.63333299424913 Q 49.8000013563368 26.811109754774304 49.8000013563368 26.899998982747395 Q 49.8000013563368 26.988888210720486 49.8000013563368 27.077777438693573 Q 49.8000013563368 27.166666666666664 49.8000013563368 27.255555894639755 Q 49.8000013563368 27.344445122612846 49.8000013563368 27.477778116861977 Q 49.8000013563368 27.61111111111111 49.8000013563368 27.7000003390842 Q 49.8000013563368 27.78888956705729 49.8000013563368 27.92222256130642 Q 49.8000013563368 28.055555555555554 49.8000013563368 28.188888549804688 Q 49.8000013563368 28.322221544053818 49.8000013563368 28.455556233723957 Q 49.8000013563368 28.588890923394096 49.8000013563368 28.72222222222222 Q 49.8000013563368 28.855553521050346 49.8000013563368 28.944444444444443 Q 49.8000013563368 29.03333536783854 49.8000013563368 29.077779134114582 Q 49.8000013563368 29.122222900390625 49.8000013563368 29.166666666666664 Q 49.8000013563368 29.211110432942707 49.8000013563368 29.25555419921875 Q 49.8000013563368 29.29999796549479 49.8000013563368 29.344445122612846 Q 49.8000013563368 29.388892279730904 49.8000013563368 29.433336046006943 Q 49.8000013563368 29.477779812282986 49.8000013563368 29.52222357855903 Q 49.8000013563368 29.566667344835068 49.8000013563368 29.61111111111111 Q 49.8000013563368 29.655554877387154 49.8000013563368 29.699998643663193 Q 49.8000013563368 29.744442409939236 49.8000013563368 29.78888956705729 Q 49.8000013563368 29.833336724175346 49.8000013563368 29.87778049045139 Q 49.8000013563368 29.922224256727432 49.8000013563368 29.96666802300347 Q 49.8000013563368 30.01111178927951 49.8000013563368 30.055555555555554 Q 49.8000013563368 30.099999321831596 49.8000013563368 30.14444308810764 Q 49.8000013563368 30.188886854383682 49.84444512261284 30.233334011501736 Q 49.888888888888886 30.27778116861979 49.888888888888886 30.322224934895832 Q 49.888888888888886 30.366668701171875 49.888888888888886 30.411112467447918 Q 49.888888888888886 30.45555623372396 49.888888888888886 30.5 Q 49.888888888888886 30.54444376627604 49.888888888888886 30.588887532552082 Q 49.888888888888886 30.633331298828125 49.888888888888886 30.67777845594618 Q 49.888888888888886 30.722225613064232 49.888888888888886 30.811113145616318 Q 49.888888888888886 30.900000678168404 49.888888888888886 30.944444444444443 Q 49.888888888888886 30.988888210720482 49.933332655164925 31.033331976996525 Q 49.977776421440964 31.077775743272568 49.977776421440964 31.122222900390625 Q 49.977776421440964 31.166670057508682 49.977776421440964 31.21111382378472 Q 49.977776421440964 31.25555759006076 49.933332655164925 31.25555759006076 Q 49.888888888888886 31.25555759006076 49.66666666666666 31.25555759006076 L 49.441444444444436 31.25555759006076" stroke-linecap="round" />
</g>
</svg>