solid 
 facet normal  0.000000e+00  0.000000e+00  1.000000e+00
   outer loop
     vertex -1.136129e+01  1.645968e+01  2.000000e+01
     vertex -1.420162e+01  2.057460e+01  2.000000e+01
     vertex -1.871277e+01  1.657807e+01  2.000000e+01
   endloop
 endfacet
 facet normal  0.000000e+00  0.000000e+00  1.000000e+00
   outer loop
     vertex -1.136129e+01  1.645968e+01  2.000000e+01
     vertex -1.871277e+01  1.657807e+01  2.000000e+01
     vertex -1.497021e+01  1.326245e+01  2.000000e+01
   endloop
 endfacet
 facet normal  0.000000e+00  0.000000e+00  1.000000e+00
   outer loop
     vertex -1.770912e+01  9.294463e+00  2.000000e+01
     vertex -1.871277e+01  1.657807e+01  2.000000e+01
     vertex -2.213640e+01  1.161808e+01  2.000000e+01
   endloop
 endfacet
 facet normal  0.000000e+00 -0.000000e+00  1.000000e+00
   outer loop
     vertex -1.770912e+01  9.294463e+00  2.000000e+01
     vertex -1.497021e+01  1.326245e+01  2.000000e+01
     vertex -1.871277e+01  1.657807e+01  2.000000e+01
   endloop
 endfacet
 facet normal  0.000000e+00  0.000000e+00  1.000000e+00
   outer loop
     vertex -7.092098e+00  1.870032e+01  2.000000e+01
     vertex -8.865122e+00  2.337541e+01  2.000000e+01
     vertex -1.420162e+01  2.057460e+01  2.000000e+01
   endloop
 endfacet
 facet normal  0.000000e+00 -0.000000e+00  1.000000e+00
   outer loop
     vertex -7.092098e+00  1.870032e+01  2.000000e+01
     vertex -3.013417e+00  2.481772e+01  2.000000e+01
     vertex -8.865122e+00  2.337541e+01  2.000000e+01
   endloop
 endfacet
 facet normal  0.000000e+00  0.000000e+00  1.000000e+00
   outer loop
     vertex -7.092098e+00  1.870032e+01  2.000000e+01
     vertex -1.420162e+01  2.057460e+01  2.000000e+01
     vertex -1.136129e+01  1.645968e+01  2.000000e+01
   endloop
 endfacet
 facet normal  0.000000e+00  0.000000e+00  1.000000e+00
   outer loop
     vertex -1.941884e+01  4.786313e+00  2.000000e+01
     vertex -2.213640e+01  1.161808e+01  2.000000e+01
     vertex -2.427355e+01  5.982892e+00  2.000000e+01
   endloop
 endfacet
 facet normal  0.000000e+00 -0.000000e+00  1.000000e+00
   outer loop
     vertex -1.941884e+01  4.786313e+00  2.000000e+01
     vertex -1.770912e+01  9.294463e+00  2.000000e+01
     vertex -2.213640e+01  1.161808e+01  2.000000e+01
   endloop
 endfacet
 facet normal  0.000000e+00  0.000000e+00  1.000000e+00
   outer loop
     vertex -2.410734e+00  1.985418e+01  2.000000e+01
     vertex -3.013417e+00  2.481772e+01  2.000000e+01
     vertex -7.092098e+00  1.870032e+01  2.000000e+01
   endloop
 endfacet
 facet normal  0.000000e+00  0.000000e+00  1.000000e+00
   outer loop
     vertex -2.000000e+01  0.000000e+00  2.000000e+01
     vertex -2.427355e+01  5.982892e+00  2.000000e+01
     vertex -2.500000e+01  0.000000e+00  2.000000e+01
   endloop
 endfacet
 facet normal  0.000000e+00 -0.000000e+00  1.000000e+00
   outer loop
     vertex -2.000000e+01  0.000000e+00  2.000000e+01
     vertex -1.941884e+01  4.786313e+00  2.000000e+01
     vertex -2.427355e+01  5.982892e+00  2.000000e+01
   endloop
 endfacet
 facet normal  0.000000e+00 -0.000000e+00  1.000000e+00
   outer loop
     vertex  2.410734e+00  1.985418e+01  2.000000e+01
     vertex  3.013417e+00  2.481772e+01  2.000000e+01
     vertex -3.013417e+00  2.481772e+01  2.000000e+01
   endloop
 endfacet
 facet normal  0.000000e+00  0.000000e+00  1.000000e+00
   outer loop
     vertex  2.410734e+00  1.985418e+01  2.000000e+01
     vertex -3.013417e+00  2.481772e+01  2.000000e+01
     vertex -2.410734e+00  1.985418e+01  2.000000e+01
   endloop
 endfacet
 facet normal  0.000000e+00  0.000000e+00  1.000000e+00
   outer loop
     vertex  8.865122e+00  2.337541e+01  2.000000e+01
     vertex  3.013417e+00  2.481772e+01  2.000000e+01
     vertex  2.410734e+00  1.985418e+01  2.000000e+01
   endloop
 endfacet
 facet normal  0.000000e+00 -0.000000e+00  1.000000e+00
   outer loop
     vertex  7.092098e+00  1.870032e+01  2.000000e+01
     vertex  8.865122e+00  2.337541e+01  2.000000e+01
     vertex  2.410734e+00  1.985418e+01  2.000000e+01
   endloop
 endfacet
 facet normal  0.000000e+00  0.000000e+00  1.000000e+00
   outer loop
     vertex  1.420162e+01  2.057460e+01  2.000000e+01
     vertex  8.865122e+00  2.337541e+01  2.000000e+01
     vertex  7.092098e+00  1.870032e+01  2.000000e+01
   endloop
 endfacet
 facet normal  0.000000e+00 -0.000000e+00  1.000000e+00
   outer loop
     vertex  1.136129e+01  1.645968e+01  2.000000e+01
     vertex  1.420162e+01  2.057460e+01  2.000000e+01
     vertex  7.092098e+00  1.870032e+01  2.000000e+01
   endloop
 endfacet
 facet normal  0.000000e+00  0.000000e+00  1.000000e+00
   outer loop
     vertex -2.500000e+01 -2.500000e+01  2.000000e+01
     vertex -2.000000e+01  0.000000e+00  2.000000e+01
     vertex -2.500000e+01  0.000000e+00  2.000000e+01
   endloop
 endfacet
 facet normal  0.000000e+00  0.000000e+00  1.000000e+00
   outer loop
     vertex  1.871277e+01  1.657807e+01  2.000000e+01
     vertex  1.136129e+01  1.645968e+01  2.000000e+01
     vertex  1.497021e+01  1.326245e+01  2.000000e+01
   endloop
 endfacet
 facet normal  0.000000e+00  0.000000e+00  1.000000e+00
   outer loop
     vertex  1.871277e+01  1.657807e+01  2.000000e+01
     vertex  1.420162e+01  2.057460e+01  2.000000e+01
     vertex  1.136129e+01  1.645968e+01  2.000000e+01
   endloop
 endfacet
 facet normal  0.000000e+00 -0.000000e+00  1.000000e+00
   outer loop
     vertex -2.000000e+01 -2.500000e+01  2.000000e+01
     vertex -2.000000e+01  0.000000e+00  2.000000e+01
     vertex -2.500000e+01 -2.500000e+01  2.000000e+01
   endloop
 endfacet
 facet normal  0.000000e+00  0.000000e+00  1.000000e+00
   outer loop
     vertex  2.213640e+01  1.161808e+01  2.000000e+01
     vertex  1.497021e+01  1.326245e+01  2.000000e+01
     vertex  1.770912e+01  9.294463e+00  2.000000e+01
   endloop
 endfacet
 facet normal  0.000000e+00  0.000000e+00  1.000000e+00
   outer loop
     vertex  2.213640e+01  1.161808e+01  2.000000e+01
     vertex  1.871277e+01  1.657807e+01  2.000000e+01
     vertex  1.497021e+01  1.326245e+01  2.000000e+01
   endloop
 endfacet
 facet normal  0.000000e+00 -0.000000e+00  1.000000e+00
   outer loop
     vertex  1.941884e+01  4.786313e+00  2.000000e+01
     vertex  2.213640e+01  1.161808e+01  2.000000e+01
     vertex  1.770912e+01  9.294463e+00  2.000000e+01
   endloop
 endfacet
 facet normal  0.000000e+00  0.000000e+00  1.000000e+00
   outer loop
     vertex  2.427355e+01  5.982892e+00  2.000000e+01
     vertex  2.213640e+01  1.161808e+01  2.000000e+01
     vertex  1.941884e+01  4.786313e+00  2.000000e+01
   endloop
 endfacet
 facet normal  0.000000e+00 -0.000000e+00  1.000000e+00
   outer loop
     vertex  2.000000e+01  0.000000e+00  2.000000e+01
     vertex  2.427355e+01  5.982892e+00  2.000000e+01
     vertex  1.941884e+01  4.786313e+00  2.000000e+01
   endloop
 endfacet
 facet normal  0.000000e+00  0.000000e+00  1.000000e+00
   outer loop
     vertex  2.500000e+01  0.000000e+00  2.000000e+01
     vertex  2.427355e+01  5.982892e+00  2.000000e+01
     vertex  2.000000e+01  0.000000e+00  2.000000e+01
   endloop
 endfacet
 facet normal  0.000000e+00  0.000000e+00  1.000000e+00
   outer loop
     vertex  2.500000e+01 -2.500000e+01  2.000000e+01
     vertex  2.000000e+01  0.000000e+00  2.000000e+01
     vertex  2.000000e+01 -2.500000e+01  2.000000e+01
   endloop
 endfacet
 facet normal  0.000000e+00 -0.000000e+00  1.000000e+00
   outer loop
     vertex  2.500000e+01 -2.500000e+01  2.000000e+01
     vertex  2.500000e+01  0.000000e+00  2.000000e+01
     vertex  2.000000e+01  0.000000e+00  2.000000e+01
   endloop
 endfacet
 facet normal -9.927089e-01  1.205367e-01  0.000000e+00
   outer loop
     vertex -2.500000e+01  0.000000e+00  0.000000e+00
     vertex -2.500000e+01  0.000000e+00  2.000000e+01
     vertex -2.427355e+01  5.982892e+00  2.000000e+01
   endloop
 endfacet
 facet normal -9.350162e-01  3.546049e-01  3.749739e-16
   outer loop
     vertex -2.427355e+01  5.982892e+00  0.000000e+00
     vertex -2.427355e+01  5.982892e+00  2.000000e+01
     vertex -2.213640e+01  1.161808e+01  2.000000e+01
   endloop
 endfacet
 facet normal -9.927089e-01  1.205367e-01 -3.520704e-16
   outer loop
     vertex -2.427355e+01  5.982892e+00  0.000000e+00
     vertex -2.500000e+01  0.000000e+00  0.000000e+00
     vertex -2.427355e+01  5.982892e+00  2.000000e+01
   endloop
 endfacet
 facet normal -8.229839e-01  5.680647e-01  3.091585e-16
   outer loop
     vertex -2.213640e+01  1.161808e+01  0.000000e+00
     vertex -2.213640e+01  1.161808e+01  2.000000e+01
     vertex -1.871277e+01  1.657807e+01  2.000000e+01
   endloop
 endfacet
 facet normal -9.350162e-01  3.546049e-01 -6.301956e-16
   outer loop
     vertex -2.213640e+01  1.161808e+01  0.000000e+00
     vertex -2.427355e+01  5.982892e+00  0.000000e+00
     vertex -2.213640e+01  1.161808e+01  2.000000e+01
   endloop
 endfacet
 facet normal -6.631227e-01  7.485107e-01  7.442005e-16
   outer loop
     vertex -1.871277e+01  1.657807e+01  0.000000e+00
     vertex -1.871277e+01  1.657807e+01  2.000000e+01
     vertex -1.420162e+01  2.057460e+01  2.000000e+01
   endloop
 endfacet
 facet normal -8.229839e-01  5.680647e-01 -2.303240e-16
   outer loop
     vertex -1.871277e+01  1.657807e+01  0.000000e+00
     vertex -2.213640e+01  1.161808e+01  0.000000e+00
     vertex -1.871277e+01  1.657807e+01  2.000000e+01
   endloop
 endfacet
 facet normal -4.647232e-01  8.854560e-01  3.602618e-16
   outer loop
     vertex -1.420162e+01  2.057460e+01  0.000000e+00
     vertex -1.420162e+01  2.057460e+01  2.000000e+01
     vertex -8.865122e+00  2.337541e+01  2.000000e+01
   endloop
 endfacet
 facet normal -6.631227e-01  7.485107e-01 -5.836469e-16
   outer loop
     vertex -1.420162e+01  2.057460e+01  0.000000e+00
     vertex -1.871277e+01  1.657807e+01  0.000000e+00
     vertex -1.420162e+01  2.057460e+01  2.000000e+01
   endloop
 endfacet
 facet normal -2.393157e-01  9.709418e-01  3.145864e-16
   outer loop
     vertex -8.865122e+00  2.337541e+01  0.000000e+00
     vertex -8.865122e+00  2.337541e+01  2.000000e+01
     vertex -3.013417e+00  2.481772e+01  2.000000e+01
   endloop
 endfacet
 facet normal -4.647232e-01  8.854560e-01 -6.325597e-16
   outer loop
     vertex -8.865122e+00  2.337541e+01  0.000000e+00
     vertex -1.420162e+01  2.057460e+01  0.000000e+00
     vertex -8.865122e+00  2.337541e+01  2.000000e+01
   endloop
 endfacet
 facet normal -1.178965e-15  1.000000e+00  3.552714e-16
   outer loop
     vertex -3.013417e+00  2.481772e+01  0.000000e+00
     vertex -3.013417e+00  2.481772e+01  2.000000e+01
     vertex  3.013417e+00  2.481772e+01  2.000000e+01
   endloop
 endfacet
 facet normal -2.393157e-01  9.709418e-01 -6.115497e-16
   outer loop
     vertex -3.013417e+00  2.481772e+01  0.000000e+00
     vertex -8.865122e+00  2.337541e+01  0.000000e+00
     vertex -3.013417e+00  2.481772e+01  2.000000e+01
   endloop
 endfacet
 facet normal  2.393157e-01  9.709418e-01  4.390758e-16
   outer loop
     vertex  3.013417e+00  2.481772e+01  0.000000e+00
     vertex  3.013417e+00  2.481772e+01  2.000000e+01
     vertex  8.865122e+00  2.337541e+01  2.000000e+01
   endloop
 endfacet
 facet normal  1.768448e-15  1.000000e+00 -5.329071e-16
   outer loop
     vertex  3.013417e+00  2.481772e+01  0.000000e+00
     vertex -3.013417e+00  2.481772e+01  0.000000e+00
     vertex  3.013417e+00  2.481772e+01  2.000000e+01
   endloop
 endfacet
 facet normal  4.647232e-01  8.854560e-01  5.165468e-16
   outer loop
     vertex  8.865122e+00  2.337541e+01  0.000000e+00
     vertex  8.865122e+00  2.337541e+01  2.000000e+01
     vertex  1.420162e+01  2.057460e+01  2.000000e+01
   endloop
 endfacet
 facet normal  2.393157e-01  9.709418e-01 -4.658048e-16
   outer loop
     vertex  8.865122e+00  2.337541e+01  0.000000e+00
     vertex  3.013417e+00  2.481772e+01  0.000000e+00
     vertex  8.865122e+00  2.337541e+01  2.000000e+01
   endloop
 endfacet
 facet normal  4.647232e-01  8.854560e-01 -5.175504e-16
   outer loop
     vertex  1.420162e+01  2.057460e+01  0.000000e+00
     vertex  8.865122e+00  2.337541e+01  0.000000e+00
     vertex  1.420162e+01  2.057460e+01  2.000000e+01
   endloop
 endfacet
 facet normal  6.631227e-01  7.485107e-01 -7.290325e-16
   outer loop
     vertex  1.871277e+01  1.657807e+01  0.000000e+00
     vertex  1.420162e+01  2.057460e+01  2.000000e+01
     vertex  1.871277e+01  1.657807e+01  2.000000e+01
   endloop
 endfacet
 facet normal  8.229839e-01  5.680647e-01  1.850412e-16
   outer loop
     vertex  1.871277e+01  1.657807e+01  0.000000e+00
     vertex  1.871277e+01  1.657807e+01  2.000000e+01
     vertex  2.213640e+01  1.161808e+01  2.000000e+01
   endloop
 endfacet
 facet normal  6.631227e-01  7.485107e-01  4.715861e-16
   outer loop
     vertex  1.871277e+01  1.657807e+01  0.000000e+00
     vertex  1.420162e+01  2.057460e+01  0.000000e+00
     vertex  1.420162e+01  2.057460e+01  2.000000e+01
   endloop
 endfacet
 facet normal  9.350162e-01  3.546049e-01  6.301956e-16
   outer loop
     vertex  2.213640e+01  1.161808e+01  0.000000e+00
     vertex  2.213640e+01  1.161808e+01  2.000000e+01
     vertex  2.427355e+01  5.982892e+00  2.000000e+01
   endloop
 endfacet
 facet normal  8.229839e-01  5.680647e-01 -3.091585e-16
   outer loop
     vertex  2.213640e+01  1.161808e+01  0.000000e+00
     vertex  1.871277e+01  1.657807e+01  0.000000e+00
     vertex  2.213640e+01  1.161808e+01  2.000000e+01
   endloop
 endfacet
 facet normal  9.350162e-01  3.546049e-01 -3.892371e-16
   outer loop
     vertex  2.427355e+01  5.982892e+00  0.000000e+00
     vertex  2.213640e+01  1.161808e+01  0.000000e+00
     vertex  2.427355e+01  5.982892e+00  2.000000e+01
   endloop
 endfacet
 facet normal  9.927089e-01  1.205367e-01 -0.000000e+00
   outer loop
     vertex  2.500000e+01  0.000000e+00  0.000000e+00
     vertex  2.427355e+01  5.982892e+00  2.000000e+01
     vertex  2.500000e+01  0.000000e+00  2.000000e+01
   endloop
 endfacet
 facet normal  9.927089e-01  1.205367e-01  5.894826e-16
   outer loop
     vertex  2.500000e+01  0.000000e+00  0.000000e+00
     vertex  2.427355e+01  5.982892e+00  0.000000e+00
     vertex  2.427355e+01  5.982892e+00  2.000000e+01
   endloop
 endfacet
 facet normal -1.000000e+00  0.000000e+00  0.000000e+00
   outer loop
     vertex -2.500000e+01 -2.500000e+01  2.000000e+01
     vertex -2.500000e+01  0.000000e+00  0.000000e+00
     vertex -2.500000e+01 -2.500000e+01  0.000000e+00
   endloop
 endfacet
 facet normal -1.000000e+00  0.000000e+00  0.000000e+00
   outer loop
     vertex -2.500000e+01 -2.500000e+01  2.000000e+01
     vertex -2.500000e+01  0.000000e+00  2.000000e+01
     vertex -2.500000e+01  0.000000e+00  0.000000e+00
   endloop
 endfacet
 facet normal  0.000000e+00  0.000000e+00 -1.000000e+00
   outer loop
     vertex -2.213640e+01  1.161808e+01  0.000000e+00
     vertex -1.871277e+01  1.657807e+01  0.000000e+00
     vertex -1.420162e+01  2.057460e+01  0.000000e+00
   endloop
 endfacet
 facet normal  0.000000e+00  0.000000e+00 -1.000000e+00
   outer loop
     vertex -2.500000e+01  0.000000e+00  0.000000e+00
     vertex -2.427355e+01  5.982892e+00  0.000000e+00
     vertex -2.213640e+01  1.161808e+01  0.000000e+00
   endloop
 endfacet
 facet normal  0.000000e+00  0.000000e+00 -1.000000e+00
   outer loop
     vertex  8.865122e+00  2.337541e+01  0.000000e+00
     vertex -3.013417e+00  2.481772e+01  0.000000e+00
     vertex  3.013417e+00  2.481772e+01  0.000000e+00
   endloop
 endfacet
 facet normal  0.000000e+00  0.000000e+00 -1.000000e+00
   outer loop
     vertex  8.865122e+00  2.337541e+01  0.000000e+00
     vertex -8.865122e+00  2.337541e+01  0.000000e+00
     vertex -3.013417e+00  2.481772e+01  0.000000e+00
   endloop
 endfacet
 facet normal  0.000000e+00  0.000000e+00 -1.000000e+00
   outer loop
     vertex  1.871277e+01  1.657807e+01  0.000000e+00
     vertex  8.865122e+00  2.337541e+01  0.000000e+00
     vertex  1.420162e+01  2.057460e+01  0.000000e+00
   endloop
 endfacet
 facet normal  0.000000e+00  0.000000e+00 -1.000000e+00
   outer loop
     vertex  1.871277e+01  1.657807e+01  0.000000e+00
     vertex -1.420162e+01  2.057460e+01  0.000000e+00
     vertex -8.865122e+00  2.337541e+01  0.000000e+00
   endloop
 endfacet
 facet normal -0.000000e+00  0.000000e+00 -1.000000e+00
   outer loop
     vertex  1.871277e+01  1.657807e+01  0.000000e+00
     vertex -2.213640e+01  1.161808e+01  0.000000e+00
     vertex -1.420162e+01  2.057460e+01  0.000000e+00
   endloop
 endfacet
 facet normal  0.000000e+00  0.000000e+00 -1.000000e+00
   outer loop
     vertex  1.871277e+01  1.657807e+01  0.000000e+00
     vertex -8.865122e+00  2.337541e+01  0.000000e+00
     vertex  8.865122e+00  2.337541e+01  0.000000e+00
   endloop
 endfacet
 facet normal -0.000000e+00  0.000000e+00 -1.000000e+00
   outer loop
     vertex  2.500000e+01  0.000000e+00  0.000000e+00
     vertex -2.500000e+01 -2.500000e+01  0.000000e+00
     vertex -2.500000e+01  0.000000e+00  0.000000e+00
   endloop
 endfacet
 facet normal  0.000000e+00  0.000000e+00 -1.000000e+00
   outer loop
     vertex  2.500000e+01  0.000000e+00  0.000000e+00
     vertex  2.213640e+01  1.161808e+01  0.000000e+00
     vertex  2.427355e+01  5.982892e+00  0.000000e+00
   endloop
 endfacet
 facet normal  0.000000e+00  0.000000e+00 -1.000000e+00
   outer loop
     vertex  2.500000e+01  0.000000e+00  0.000000e+00
     vertex  1.871277e+01  1.657807e+01  0.000000e+00
     vertex  2.213640e+01  1.161808e+01  0.000000e+00
   endloop
 endfacet
 facet normal  0.000000e+00  0.000000e+00 -1.000000e+00
   outer loop
     vertex  2.500000e+01  0.000000e+00  0.000000e+00
     vertex -2.500000e+01  0.000000e+00  0.000000e+00
     vertex -2.213640e+01  1.161808e+01  0.000000e+00
   endloop
 endfacet
 facet normal  0.000000e+00  0.000000e+00 -1.000000e+00
   outer loop
     vertex  2.500000e+01  0.000000e+00  0.000000e+00
     vertex -2.213640e+01  1.161808e+01  0.000000e+00
     vertex  1.871277e+01  1.657807e+01  0.000000e+00
   endloop
 endfacet
 facet normal  0.000000e+00  0.000000e+00 -1.000000e+00
   outer loop
     vertex  2.500000e+01 -2.500000e+01  0.000000e+00
     vertex -2.500000e+01 -2.500000e+01  0.000000e+00
     vertex  2.500000e+01  0.000000e+00  0.000000e+00
   endloop
 endfacet
 facet normal -9.927089e-01 -1.205367e-01  0.000000e+00
   outer loop
     vertex -1.456413e+01 -3.589735e+00  2.000000e+01
     vertex -1.500000e+01 -1.836970e-15  2.000000e+01
     vertex -1.500000e+01 -1.836970e-15  1.500000e+01
   endloop
 endfacet
 facet normal -9.927089e-01 -1.205367e-01 -5.762818e-16
   outer loop
     vertex -1.456413e+01 -3.589735e+00  2.000000e+01
     vertex -1.500000e+01 -1.836970e-15  1.500000e+01
     vertex -1.456413e+01 -3.589735e+00  1.500000e+01
   endloop
 endfacet
 facet normal -9.350162e-01 -3.546049e-01 -5.157996e-16
   outer loop
     vertex -1.328184e+01 -6.970848e+00  2.000000e+01
     vertex -1.456413e+01 -3.589735e+00  1.500000e+01
     vertex -1.328184e+01 -6.970848e+00  1.500000e+01
   endloop
 endfacet
 facet normal -9.350162e-01 -3.546049e-01  4.421119e-16
   outer loop
     vertex -1.328184e+01 -6.970848e+00  2.000000e+01
     vertex -1.456413e+01 -3.589735e+00  2.000000e+01
     vertex -1.456413e+01 -3.589735e+00  1.500000e+01
   endloop
 endfacet
 facet normal -8.229839e-01 -5.680647e-01 -1.226544e-15
   outer loop
     vertex -1.122766e+01 -9.946840e+00  2.000000e+01
     vertex -1.328184e+01 -6.970848e+00  1.500000e+01
     vertex -1.122766e+01 -9.946840e+00  1.500000e+01
   endloop
 endfacet
 facet normal -8.229839e-01 -5.680647e-01  1.080718e-15
   outer loop
     vertex -1.122766e+01 -9.946840e+00  2.000000e+01
     vertex -1.328184e+01 -6.970848e+00  2.000000e+01
     vertex -1.328184e+01 -6.970848e+00  1.500000e+01
   endloop
 endfacet
 facet normal -6.631227e-01 -7.485107e-01 -1.277989e-15
   outer loop
     vertex -8.520971e+00 -1.234476e+01  2.000000e+01
     vertex -1.122766e+01 -9.946840e+00  1.500000e+01
     vertex -8.520971e+00 -1.234476e+01  1.500000e+01
   endloop
 endfacet
 facet normal -6.631227e-01 -7.485107e-01  1.080718e-15
   outer loop
     vertex -8.520971e+00 -1.234476e+01  2.000000e+01
     vertex -1.122766e+01 -9.946840e+00  2.000000e+01
     vertex -1.122766e+01 -9.946840e+00  1.500000e+01
   endloop
 endfacet
 facet normal -4.647232e-01 -8.854560e-01 -1.720353e-15
   outer loop
     vertex -5.319073e+00 -1.402524e+01  2.000000e+01
     vertex -8.520971e+00 -1.234476e+01  1.500000e+01
     vertex -5.319073e+00 -1.402524e+01  1.500000e+01
   endloop
 endfacet
 facet normal -4.647232e-01 -8.854560e-01  1.670201e-15
   outer loop
     vertex -5.319073e+00 -1.402524e+01  2.000000e+01
     vertex -8.520971e+00 -1.234476e+01  2.000000e+01
     vertex -8.520971e+00 -1.234476e+01  1.500000e+01
   endloop
 endfacet
 facet normal -2.393157e-01 -9.709418e-01 -2.420084e-15
   outer loop
     vertex -1.808050e+00 -1.489063e+01  2.000000e+01
     vertex -5.319073e+00 -1.402524e+01  1.500000e+01
     vertex -1.808050e+00 -1.489063e+01  1.500000e+01
   endloop
 endfacet
 facet normal -2.393157e-01 -9.709418e-01  1.866695e-15
   outer loop
     vertex -1.808050e+00 -1.489063e+01  2.000000e+01
     vertex -5.319073e+00 -1.402524e+01  2.000000e+01
     vertex -5.319073e+00 -1.402524e+01  1.500000e+01
   endloop
 endfacet
 facet normal  3.929884e-15 -1.000000e+00 -1.776357e-15
   outer loop
     vertex  1.808050e+00 -1.489063e+01  2.000000e+01
     vertex -1.808050e+00 -1.489063e+01  1.500000e+01
     vertex  1.808050e+00 -1.489063e+01  1.500000e+01
   endloop
 endfacet
 facet normal -9.824710e-16 -1.000000e+00  1.776357e-15
   outer loop
     vertex  1.808050e+00 -1.489063e+01  2.000000e+01
     vertex -1.808050e+00 -1.489063e+01  2.000000e+01
     vertex -1.808050e+00 -1.489063e+01  1.500000e+01
   endloop
 endfacet
 facet normal  2.393157e-01 -9.709418e-01 -2.298049e-15
   outer loop
     vertex  5.319073e+00 -1.402524e+01  2.000000e+01
     vertex  1.808050e+00 -1.489063e+01  1.500000e+01
     vertex  5.319073e+00 -1.402524e+01  1.500000e+01
   endloop
 endfacet
 facet normal  2.393157e-01 -9.709418e-01  2.431616e-15
   outer loop
     vertex  5.319073e+00 -1.402524e+01  2.000000e+01
     vertex  1.808050e+00 -1.489063e+01  2.000000e+01
     vertex  1.808050e+00 -1.489063e+01  1.500000e+01
   endloop
 endfacet
 facet normal  4.647232e-01 -8.854560e-01 -2.038945e-15
   outer loop
     vertex  8.520971e+00 -1.234476e+01  2.000000e+01
     vertex  5.319073e+00 -1.402524e+01  1.500000e+01
     vertex  8.520971e+00 -1.234476e+01  1.500000e+01
   endloop
 endfacet
 facet normal  4.647232e-01 -8.854560e-01  1.915818e-15
   outer loop
     vertex  8.520971e+00 -1.234476e+01  2.000000e+01
     vertex  5.319073e+00 -1.402524e+01  2.000000e+01
     vertex  5.319073e+00 -1.402524e+01  1.500000e+01
   endloop
 endfacet
 facet normal  6.631227e-01 -7.485107e-01 -2.064784e-15
   outer loop
     vertex  1.122766e+01 -9.946840e+00  2.000000e+01
     vertex  8.520971e+00 -1.234476e+01  1.500000e+01
     vertex  1.122766e+01 -9.946840e+00  1.500000e+01
   endloop
 endfacet
 facet normal  6.631227e-01 -7.485107e-01  2.210560e-15
   outer loop
     vertex  1.122766e+01 -9.946840e+00  2.000000e+01
     vertex  8.520971e+00 -1.234476e+01  2.000000e+01
     vertex  8.520971e+00 -1.234476e+01  1.500000e+01
   endloop
 endfacet
 facet normal  8.229839e-01 -5.680647e-01  2.161436e-15
   outer loop
     vertex  1.328184e+01 -6.970848e+00  2.000000e+01
     vertex  1.122766e+01 -9.946840e+00  2.000000e+01
     vertex  1.122766e+01 -9.946840e+00  1.500000e+01
   endloop
 endfacet
 facet normal  8.229839e-01 -5.680647e-01 -2.054246e-15
   outer loop
     vertex  1.328184e+01 -6.970848e+00  2.000000e+01
     vertex  1.122766e+01 -9.946840e+00  1.500000e+01
     vertex  1.328184e+01 -6.970848e+00  1.500000e+01
   endloop
 endfacet
 facet normal  9.350162e-01 -3.546049e-01  2.161436e-15
   outer loop
     vertex  1.456413e+01 -3.589735e+00  2.000000e+01
     vertex  1.328184e+01 -6.970848e+00  2.000000e+01
     vertex  1.328184e+01 -6.970848e+00  1.500000e+01
   endloop
 endfacet
 facet normal  9.350162e-01 -3.546049e-01 -1.665697e-15
   outer loop
     vertex  1.456413e+01 -3.589735e+00  2.000000e+01
     vertex  1.328184e+01 -6.970848e+00  1.500000e+01
     vertex  1.456413e+01 -3.589735e+00  1.500000e+01
   endloop
 endfacet
 facet normal  9.927089e-01 -1.205367e-01  2.554425e-15
   outer loop
     vertex  1.500000e+01 -4.364197e-14  2.000000e+01
     vertex  1.456413e+01 -3.589735e+00  2.000000e+01
     vertex  1.456413e+01 -3.589735e+00  1.500000e+01
   endloop
 endfacet
 facet normal  9.927089e-01 -1.205367e-01 -2.104183e-15
   outer loop
     vertex  1.500000e+01 -4.364197e-14  2.000000e+01
     vertex  1.456413e+01 -3.589735e+00  1.500000e+01
     vertex  1.500000e+01  4.364197e-14  1.500000e+01
   endloop
 endfacet
 facet normal  9.927089e-01  1.205367e-01  2.100032e-15
   outer loop
     vertex  1.456413e+01  3.589735e+00  2.000000e+01
     vertex  1.500000e+01 -4.364197e-14  2.000000e+01
     vertex  1.500000e+01  4.364197e-14  1.500000e+01
   endloop
 endfacet
 facet normal  9.927089e-01  1.205367e-01 -2.550750e-15
   outer loop
     vertex  1.456413e+01  3.589735e+00  2.000000e+01
     vertex  1.500000e+01  4.364197e-14  1.500000e+01
     vertex  1.456413e+01  3.589735e+00  1.500000e+01
   endloop
 endfacet
 facet normal  9.350162e-01  3.546049e-01  1.670201e-15
   outer loop
     vertex  1.328184e+01  6.970848e+00  2.000000e+01
     vertex  1.456413e+01  3.589735e+00  2.000000e+01
     vertex  1.456413e+01  3.589735e+00  1.500000e+01
   endloop
 endfacet
 facet normal  9.350162e-01  3.546049e-01 -2.160072e-15
   outer loop
     vertex  1.328184e+01  6.970848e+00  2.000000e+01
     vertex  1.456413e+01  3.589735e+00  1.500000e+01
     vertex  1.328184e+01  6.970848e+00  1.500000e+01
   endloop
 endfacet
 facet normal  8.229839e-01  5.680647e-01  2.063189e-15
   outer loop
     vertex  1.122766e+01  9.946840e+00  2.000000e+01
     vertex  1.328184e+01  6.970848e+00  2.000000e+01
     vertex  1.328184e+01  6.970848e+00  1.500000e+01
   endloop
 endfacet
 facet normal  8.229839e-01  5.680647e-01 -2.181392e-15
   outer loop
     vertex  1.122766e+01  9.946840e+00  2.000000e+01
     vertex  1.328184e+01  6.970848e+00  1.500000e+01
     vertex  1.122766e+01  9.946840e+00  1.500000e+01
   endloop
 endfacet
 facet normal  6.631227e-01  7.485107e-01  2.063189e-15
   outer loop
     vertex  8.520971e+00  1.234476e+01  2.000000e+01
     vertex  1.122766e+01  9.946840e+00  2.000000e+01
     vertex  1.122766e+01  9.946840e+00  1.500000e+01
   endloop
 endfacet
 facet normal  6.631227e-01  7.485107e-01 -2.213244e-15
   outer loop
     vertex  8.520971e+00  1.234476e+01  2.000000e+01
     vertex  1.122766e+01  9.946840e+00  1.500000e+01
     vertex  8.520971e+00  1.234476e+01  1.500000e+01
   endloop
 endfacet
 facet normal  4.647232e-01  8.854560e-01  2.014065e-15
   outer loop
     vertex  5.319073e+00  1.402524e+01  2.000000e+01
     vertex  8.520971e+00  1.234476e+01  2.000000e+01
     vertex  8.520971e+00  1.234476e+01  1.500000e+01
   endloop
 endfacet
 facet normal  4.647232e-01  8.854560e-01 -1.932341e-15
   outer loop
     vertex  5.319073e+00  1.402524e+01  2.000000e+01
     vertex  8.520971e+00  1.234476e+01  1.500000e+01
     vertex  5.319073e+00  1.402524e+01  1.500000e+01
   endloop
 endfacet
 facet normal  2.393157e-01  9.709418e-01 -2.430711e-15
   outer loop
     vertex  1.808050e+00  1.489063e+01  2.000000e+01
     vertex  5.319073e+00  1.402524e+01  1.500000e+01
     vertex  1.808050e+00  1.489063e+01  1.500000e+01
   endloop
 endfacet
 facet normal  2.393157e-01  9.709418e-01  2.308807e-15
   outer loop
     vertex  1.808050e+00  1.489063e+01  2.000000e+01
     vertex  5.319073e+00  1.402524e+01  2.000000e+01
     vertex  5.319073e+00  1.402524e+01  1.500000e+01
   endloop
 endfacet
 facet normal -9.824710e-16  1.000000e+00 -1.776357e-15
   outer loop
     vertex -1.808050e+00  1.489063e+01  2.000000e+01
     vertex  1.808050e+00  1.489063e+01  1.500000e+01
     vertex -1.808050e+00  1.489063e+01  1.500000e+01
   endloop
 endfacet
 facet normal  3.929884e-15  1.000000e+00  1.776357e-15
   outer loop
     vertex -1.808050e+00  1.489063e+01  2.000000e+01
     vertex  1.808050e+00  1.489063e+01  2.000000e+01
     vertex  1.808050e+00  1.489063e+01  1.500000e+01
   endloop
 endfacet
 facet normal -2.393157e-01  9.709418e-01 -1.858359e-15
   outer loop
     vertex -5.319073e+00  1.402524e+01  2.000000e+01
     vertex -1.808050e+00  1.489063e+01  1.500000e+01
     vertex -5.319073e+00  1.402524e+01  1.500000e+01
   endloop
 endfacet
 facet normal -2.393157e-01  9.709418e-01  2.382492e-15
   outer loop
     vertex -5.319073e+00  1.402524e+01  2.000000e+01
     vertex -1.808050e+00  1.489063e+01  2.000000e+01
     vertex -1.808050e+00  1.489063e+01  1.500000e+01
   endloop
 endfacet
 facet normal -4.647232e-01  8.854560e-01 -1.668664e-15
   outer loop
     vertex -8.520971e+00  1.234476e+01  2.000000e+01
     vertex -5.319073e+00  1.402524e+01  1.500000e+01
     vertex -8.520971e+00  1.234476e+01  1.500000e+01
   endloop
 endfacet
 facet normal -4.647232e-01  8.854560e-01  1.719324e-15
   outer loop
     vertex -8.520971e+00  1.234476e+01  2.000000e+01
     vertex -5.319073e+00  1.402524e+01  2.000000e+01
     vertex -5.319073e+00  1.402524e+01  1.500000e+01
   endloop
 endfacet
 facet normal -6.631227e-01  7.485107e-01 -1.077896e-15
   outer loop
     vertex -1.122766e+01  9.946840e+00  2.000000e+01
     vertex -8.520971e+00  1.234476e+01  1.500000e+01
     vertex -1.122766e+01  9.946840e+00  1.500000e+01
   endloop
 endfacet
 facet normal -6.631227e-01  7.485107e-01  1.277212e-15
   outer loop
     vertex -1.122766e+01  9.946840e+00  2.000000e+01
     vertex -8.520971e+00  1.234476e+01  2.000000e+01
     vertex -8.520971e+00  1.234476e+01  1.500000e+01
   endloop
 endfacet
 facet normal -8.229839e-01  5.680647e-01 -1.091831e-15
   outer loop
     vertex -1.328184e+01  6.970848e+00  2.000000e+01
     vertex -1.122766e+01  9.946840e+00  1.500000e+01
     vertex -1.328184e+01  6.970848e+00  1.500000e+01
   endloop
 endfacet
 facet normal -8.229839e-01  5.680647e-01  1.228089e-15
   outer loop
     vertex -1.328184e+01  6.970848e+00  2.000000e+01
     vertex -1.122766e+01  9.946840e+00  2.000000e+01
     vertex -1.122766e+01  9.946840e+00  1.500000e+01
   endloop
 endfacet
 facet normal -9.927089e-01  1.205367e-01  5.762818e-16
   outer loop
     vertex -1.456413e+01  3.589735e+00  2.000000e+01
     vertex -1.456413e+01  3.589735e+00  1.500000e+01
     vertex -1.500000e+01 -1.836970e-15  1.500000e+01
   endloop
 endfacet
 facet normal -9.350162e-01  3.546049e-01 -4.207323e-16
   outer loop
     vertex -1.456413e+01  3.589735e+00  2.000000e+01
     vertex -1.328184e+01  6.970848e+00  1.500000e+01
     vertex -1.456413e+01  3.589735e+00  1.500000e+01
   endloop
 endfacet
 facet normal -9.350162e-01  3.546049e-01  5.403590e-16
   outer loop
     vertex -1.456413e+01  3.589735e+00  2.000000e+01
     vertex -1.328184e+01  6.970848e+00  2.000000e+01
     vertex -1.328184e+01  6.970848e+00  1.500000e+01
   endloop
 endfacet
 facet normal -9.927089e-01  1.205367e-01  0.000000e+00
   outer loop
     vertex -1.500000e+01 -1.836970e-15  2.000000e+01
     vertex -1.456413e+01  3.589735e+00  2.000000e+01
     vertex -1.500000e+01 -1.836970e-15  1.500000e+01
   endloop
 endfacet
 facet normal  0.000000e+00  0.000000e+00  1.000000e+00
   outer loop
     vertex -1.328184e+01 -6.970848e+00  2.000000e+01
     vertex -1.122766e+01 -9.946840e+00  2.000000e+01
     vertex -8.520971e+00 -1.234476e+01  2.000000e+01
   endloop
 endfacet
 facet normal  0.000000e+00  0.000000e+00  1.000000e+00
   outer loop
     vertex -1.500000e+01 -1.836970e-15  2.000000e+01
     vertex -1.456413e+01 -3.589735e+00  2.000000e+01
     vertex -1.328184e+01 -6.970848e+00  2.000000e+01
   endloop
 endfacet
 facet normal  0.000000e+00  0.000000e+00  1.000000e+00
   outer loop
     vertex  1.808050e+00 -1.489063e+01  2.000000e+01
     vertex -8.520971e+00 -1.234476e+01  2.000000e+01
     vertex -5.319073e+00 -1.402524e+01  2.000000e+01
   endloop
 endfacet
 facet normal  0.000000e+00  0.000000e+00  1.000000e+00
   outer loop
     vertex  1.808050e+00 -1.489063e+01  2.000000e+01
     vertex -5.319073e+00 -1.402524e+01  2.000000e+01
     vertex -1.808050e+00 -1.489063e+01  2.000000e+01
   endloop
 endfacet
 facet normal  0.000000e+00  0.000000e+00  1.000000e+00
   outer loop
     vertex  5.319073e+00 -1.402524e+01  2.000000e+01
     vertex -1.328184e+01 -6.970848e+00  2.000000e+01
     vertex -8.520971e+00 -1.234476e+01  2.000000e+01
   endloop
 endfacet
 facet normal  0.000000e+00  0.000000e+00  1.000000e+00
   outer loop
     vertex  5.319073e+00 -1.402524e+01  2.000000e+01
     vertex -8.520971e+00 -1.234476e+01  2.000000e+01
     vertex  1.808050e+00 -1.489063e+01  2.000000e+01
   endloop
 endfacet
 facet normal  0.000000e+00  0.000000e+00  1.000000e+00
   outer loop
     vertex  8.520971e+00 -1.234476e+01  2.000000e+01
     vertex -1.328184e+01 -6.970848e+00  2.000000e+01
     vertex  5.319073e+00 -1.402524e+01  2.000000e+01
   endloop
 endfacet
 facet normal  0.000000e+00  0.000000e+00  1.000000e+00
   outer loop
     vertex  1.456413e+01 -3.589735e+00  2.000000e+01
     vertex  1.122766e+01 -9.946840e+00  2.000000e+01
     vertex  1.328184e+01 -6.970848e+00  2.000000e+01
   endloop
 endfacet
 facet normal  0.000000e+00  0.000000e+00  1.000000e+00
   outer loop
     vertex  1.500000e+01 -4.364197e-14  2.000000e+01
     vertex  8.520971e+00 -1.234476e+01  2.000000e+01
     vertex  1.122766e+01 -9.946840e+00  2.000000e+01
   endloop
 endfacet
 facet normal  0.000000e+00  0.000000e+00  1.000000e+00
   outer loop
     vertex  1.500000e+01 -4.364197e-14  2.000000e+01
     vertex  1.122766e+01 -9.946840e+00  2.000000e+01
     vertex  1.456413e+01 -3.589735e+00  2.000000e+01
   endloop
 endfacet
 facet normal  0.000000e+00  0.000000e+00  1.000000e+00
   outer loop
     vertex  5.319073e+00  1.402524e+01  2.000000e+01
     vertex  1.808050e+00  1.489063e+01  2.000000e+01
     vertex -1.808050e+00  1.489063e+01  2.000000e+01
   endloop
 endfacet
 facet normal  0.000000e+00  0.000000e+00  1.000000e+00
   outer loop
     vertex  1.328184e+01  6.970848e+00  2.000000e+01
     vertex  1.500000e+01 -4.364197e-14  2.000000e+01
     vertex  1.456413e+01  3.589735e+00  2.000000e+01
   endloop
 endfacet
 facet normal  0.000000e+00  0.000000e+00  1.000000e+00
   outer loop
     vertex  1.328184e+01  6.970848e+00  2.000000e+01
     vertex -1.328184e+01  6.970848e+00  2.000000e+01
     vertex -1.456413e+01  3.589735e+00  2.000000e+01
   endloop
 endfacet
 facet normal  0.000000e+00  0.000000e+00  1.000000e+00
   outer loop
     vertex  1.328184e+01  6.970848e+00  2.000000e+01
     vertex -1.456413e+01  3.589735e+00  2.000000e+01
     vertex -1.500000e+01 -1.836970e-15  2.000000e+01
   endloop
 endfacet
 facet normal  0.000000e+00  0.000000e+00  1.000000e+00
   outer loop
     vertex  1.328184e+01  6.970848e+00  2.000000e+01
     vertex -1.500000e+01 -1.836970e-15  2.000000e+01
     vertex -1.328184e+01 -6.970848e+00  2.000000e+01
   endloop
 endfacet
 facet normal  0.000000e+00  0.000000e+00  1.000000e+00
   outer loop
     vertex  1.328184e+01  6.970848e+00  2.000000e+01
     vertex -1.328184e+01 -6.970848e+00  2.000000e+01
     vertex  8.520971e+00 -1.234476e+01  2.000000e+01
   endloop
 endfacet
 facet normal  0.000000e+00  0.000000e+00  1.000000e+00
   outer loop
     vertex  1.328184e+01  6.970848e+00  2.000000e+01
     vertex  8.520971e+00 -1.234476e+01  2.000000e+01
     vertex  1.500000e+01 -4.364197e-14  2.000000e+01
   endloop
 endfacet
 facet normal  0.000000e+00  0.000000e+00  1.000000e+00
   outer loop
     vertex  1.122766e+01  9.946840e+00  2.000000e+01
     vertex  8.520971e+00  1.234476e+01  2.000000e+01
     vertex  5.319073e+00  1.402524e+01  2.000000e+01
   endloop
 endfacet
 facet normal  0.000000e+00  0.000000e+00  1.000000e+00
   outer loop
     vertex  1.122766e+01  9.946840e+00  2.000000e+01
     vertex -1.808050e+00  1.489063e+01  2.000000e+01
     vertex -5.319073e+00  1.402524e+01  2.000000e+01
   endloop
 endfacet
 facet normal  0.000000e+00  0.000000e+00  1.000000e+00
   outer loop
     vertex  1.122766e+01  9.946840e+00  2.000000e+01
     vertex -5.319073e+00  1.402524e+01  2.000000e+01
     vertex -8.520971e+00  1.234476e+01  2.000000e+01
   endloop
 endfacet
 facet normal  0.000000e+00  0.000000e+00  1.000000e+00
   outer loop
     vertex  1.122766e+01  9.946840e+00  2.000000e+01
     vertex -8.520971e+00  1.234476e+01  2.000000e+01
     vertex -1.122766e+01  9.946840e+00  2.000000e+01
   endloop
 endfacet
 facet normal  0.000000e+00  0.000000e+00  1.000000e+00
   outer loop
     vertex  1.122766e+01  9.946840e+00  2.000000e+01
     vertex -1.122766e+01  9.946840e+00  2.000000e+01
     vertex -1.328184e+01  6.970848e+00  2.000000e+01
   endloop
 endfacet
 facet normal  0.000000e+00  0.000000e+00  1.000000e+00
   outer loop
     vertex  1.122766e+01  9.946840e+00  2.000000e+01
     vertex -1.328184e+01  6.970848e+00  2.000000e+01
     vertex  1.328184e+01  6.970848e+00  2.000000e+01
   endloop
 endfacet
 facet normal  0.000000e+00  0.000000e+00  1.000000e+00
   outer loop
     vertex  1.122766e+01  9.946840e+00  2.000000e+01
     vertex  5.319073e+00  1.402524e+01  2.000000e+01
     vertex -1.808050e+00  1.489063e+01  2.000000e+01
   endloop
 endfacet
 facet normal -1.000000e+00 -1.192093e-08  0.000000e+00
   outer loop
     vertex  2.000000e+01 -2.500000e+01  1.500000e+01
     vertex  2.000000e+01 -2.500000e+01  2.000000e+01
     vertex  2.000000e+01  0.000000e+00  2.000000e+01
   endloop
 endfacet
 facet normal -1.000000e+00  0.000000e+00 -5.960464e-08
   outer loop
     vertex  2.000000e+01 -2.500000e+01  1.500000e+01
     vertex  2.000000e+01  0.000000e+00  2.000000e+01
     vertex  2.000000e+01  0.000000e+00  1.500000e+01
   endloop
 endfacet
 facet normal  1.000000e+00  0.000000e+00  0.000000e+00
   outer loop
     vertex -2.000000e+01 -2.500000e+01  2.000000e+01
     vertex -2.000000e+01 -2.500000e+01  1.500000e+01
     vertex -2.000000e+01  0.000000e+00  1.500000e+01
   endloop
 endfacet
 facet normal  1.000000e+00 -0.000000e+00  0.000000e+00
   outer loop
     vertex -2.000000e+01 -2.500000e+01  2.000000e+01
     vertex -2.000000e+01  0.000000e+00  1.500000e+01
     vertex -2.000000e+01  0.000000e+00  2.000000e+01
   endloop
 endfacet
 facet normal  0.000000e+00  0.000000e+00  1.000000e+00
   outer loop
     vertex -8.520971e+00 -1.234476e+01  1.500000e+01
     vertex -1.122766e+01 -9.946840e+00  1.500000e+01
     vertex -2.000000e+01 -2.500000e+01  1.500000e+01
   endloop
 endfacet
 facet normal  0.000000e+00  0.000000e+00  1.000000e+00
   outer loop
     vertex -1.328184e+01 -6.970848e+00  1.500000e+01
     vertex -2.000000e+01 -2.500000e+01  1.500000e+01
     vertex -1.122766e+01 -9.946840e+00  1.500000e+01
   endloop
 endfacet
 facet normal  0.000000e+00  0.000000e+00  1.000000e+00
   outer loop
     vertex -2.000000e+01  0.000000e+00  1.500000e+01
     vertex -2.000000e+01 -2.500000e+01  1.500000e+01
     vertex -1.328184e+01 -6.970848e+00  1.500000e+01
   endloop
 endfacet
 facet normal  0.000000e+00  0.000000e+00  1.000000e+00
   outer loop
     vertex -5.319073e+00 -1.402524e+01  1.500000e+01
     vertex -8.520971e+00 -1.234476e+01  1.500000e+01
     vertex -2.000000e+01 -2.500000e+01  1.500000e+01
   endloop
 endfacet
 facet normal  0.000000e+00  0.000000e+00  1.000000e+00
   outer loop
     vertex -1.456413e+01 -3.589735e+00  1.500000e+01
     vertex -2.000000e+01  0.000000e+00  1.500000e+01
     vertex -1.328184e+01 -6.970848e+00  1.500000e+01
   endloop
 endfacet
 facet normal  0.000000e+00  0.000000e+00  1.000000e+00
   outer loop
     vertex -1.808050e+00 -1.489063e+01  1.500000e+01
     vertex -5.319073e+00 -1.402524e+01  1.500000e+01
     vertex -2.000000e+01 -2.500000e+01  1.500000e+01
   endloop
 endfacet
 facet normal  0.000000e+00  0.000000e+00  1.000000e+00
   outer loop
     vertex -1.500000e+01 -1.836970e-15  1.500000e+01
     vertex -2.000000e+01  0.000000e+00  1.500000e+01
     vertex -1.456413e+01 -3.589735e+00  1.500000e+01
   endloop
 endfacet
 facet normal  0.000000e+00  0.000000e+00  1.000000e+00
   outer loop
     vertex  1.808050e+00 -1.489063e+01  1.500000e+01
     vertex -1.808050e+00 -1.489063e+01  1.500000e+01
     vertex -2.000000e+01 -2.500000e+01  1.500000e+01
   endloop
 endfacet
 facet normal  0.000000e+00  0.000000e+00  1.000000e+00
   outer loop
     vertex -1.456413e+01  3.589735e+00  1.500000e+01
     vertex -1.941884e+01  4.786313e+00  1.500000e+01
     vertex -2.000000e+01  0.000000e+00  1.500000e+01
   endloop
 endfacet
 facet normal  0.000000e+00  0.000000e+00  1.000000e+00
   outer loop
     vertex -1.456413e+01  3.589735e+00  1.500000e+01
     vertex -2.000000e+01  0.000000e+00  1.500000e+01
     vertex -1.500000e+01 -1.836970e-15  1.500000e+01
   endloop
 endfacet
 facet normal  0.000000e+00  0.000000e+00  1.000000e+00
   outer loop
     vertex -1.328184e+01  6.970848e+00  1.500000e+01
     vertex -1.770912e+01  9.294463e+00  1.500000e+01
     vertex -1.941884e+01  4.786313e+00  1.500000e+01
   endloop
 endfacet
 facet normal  0.000000e+00  0.000000e+00  1.000000e+00
   outer loop
     vertex -1.328184e+01  6.970848e+00  1.500000e+01
     vertex -1.941884e+01  4.786313e+00  1.500000e+01
     vertex -1.456413e+01  3.589735e+00  1.500000e+01
   endloop
 endfacet
 facet normal  0.000000e+00  0.000000e+00  1.000000e+00
   outer loop
     vertex  2.000000e+01 -2.500000e+01  1.500000e+01
     vertex  5.319073e+00 -1.402524e+01  1.500000e+01
     vertex  1.808050e+00 -1.489063e+01  1.500000e+01
   endloop
 endfacet
 facet normal  0.000000e+00  0.000000e+00  1.000000e+00
   outer loop
     vertex  2.000000e+01 -2.500000e+01  1.500000e+01
     vertex  1.808050e+00 -1.489063e+01  1.500000e+01
     vertex -2.000000e+01 -2.500000e+01  1.500000e+01
   endloop
 endfacet
 facet normal  0.000000e+00  0.000000e+00  1.000000e+00
   outer loop
     vertex  8.520971e+00 -1.234476e+01  1.500000e+01
     vertex  5.319073e+00 -1.402524e+01  1.500000e+01
     vertex  2.000000e+01 -2.500000e+01  1.500000e+01
   endloop
 endfacet
 facet normal  0.000000e+00  0.000000e+00  1.000000e+00
   outer loop
     vertex -1.122766e+01  9.946840e+00  1.500000e+01
     vertex -1.497021e+01  1.326245e+01  1.500000e+01
     vertex -1.770912e+01  9.294463e+00  1.500000e+01
   endloop
 endfacet
 facet normal  0.000000e+00  0.000000e+00  1.000000e+00
   outer loop
     vertex -1.122766e+01  9.946840e+00  1.500000e+01
     vertex -1.770912e+01  9.294463e+00  1.500000e+01
     vertex -1.328184e+01  6.970848e+00  1.500000e+01
   endloop
 endfacet
 facet normal  0.000000e+00  0.000000e+00  1.000000e+00
   outer loop
     vertex  1.122766e+01 -9.946840e+00  1.500000e+01
     vertex  8.520971e+00 -1.234476e+01  1.500000e+01
     vertex  2.000000e+01 -2.500000e+01  1.500000e+01
   endloop
 endfacet
 facet normal  0.000000e+00  0.000000e+00  1.000000e+00
   outer loop
     vertex -8.520971e+00  1.234476e+01  1.500000e+01
     vertex -1.497021e+01  1.326245e+01  1.500000e+01
     vertex -1.122766e+01  9.946840e+00  1.500000e+01
   endloop
 endfacet
 facet normal  0.000000e+00  0.000000e+00  1.000000e+00
   outer loop
     vertex -1.136129e+01  1.645968e+01  1.500000e+01
     vertex -1.497021e+01  1.326245e+01  1.500000e+01
     vertex -8.520971e+00  1.234476e+01  1.500000e+01
   endloop
 endfacet
 facet normal  0.000000e+00  0.000000e+00  1.000000e+00
   outer loop
     vertex  1.328184e+01 -6.970848e+00  1.500000e+01
     vertex  1.122766e+01 -9.946840e+00  1.500000e+01
     vertex  2.000000e+01 -2.500000e+01  1.500000e+01
   endloop
 endfacet
 facet normal  0.000000e+00  0.000000e+00  1.000000e+00
   outer loop
     vertex -5.319073e+00  1.402524e+01  1.500000e+01
     vertex -1.136129e+01  1.645968e+01  1.500000e+01
     vertex -8.520971e+00  1.234476e+01  1.500000e+01
   endloop
 endfacet
 facet normal  0.000000e+00  0.000000e+00  1.000000e+00
   outer loop
     vertex -7.092098e+00  1.870032e+01  1.500000e+01
     vertex -1.136129e+01  1.645968e+01  1.500000e+01
     vertex -5.319073e+00  1.402524e+01  1.500000e+01
   endloop
 endfacet
 facet normal  0.000000e+00  0.000000e+00  1.000000e+00
   outer loop
     vertex -2.410734e+00  1.985418e+01  1.500000e+01
     vertex -5.319073e+00  1.402524e+01  1.500000e+01
     vertex -1.808050e+00  1.489063e+01  1.500000e+01
   endloop
 endfacet
 facet normal  0.000000e+00  0.000000e+00  1.000000e+00
   outer loop
     vertex -2.410734e+00  1.985418e+01  1.500000e+01
     vertex -7.092098e+00  1.870032e+01  1.500000e+01
     vertex -5.319073e+00  1.402524e+01  1.500000e+01
   endloop
 endfacet
 facet normal  0.000000e+00  0.000000e+00  1.000000e+00
   outer loop
     vertex  2.000000e+01  0.000000e+00  1.500000e+01
     vertex  1.500000e+01  4.364197e-14  1.500000e+01
     vertex  1.456413e+01 -3.589735e+00  1.500000e+01
   endloop
 endfacet
 facet normal  0.000000e+00  0.000000e+00  1.000000e+00
   outer loop
     vertex  2.000000e+01  0.000000e+00  1.500000e+01
     vertex  1.456413e+01 -3.589735e+00  1.500000e+01
     vertex  1.328184e+01 -6.970848e+00  1.500000e+01
   endloop
 endfacet
 facet normal  0.000000e+00  0.000000e+00  1.000000e+00
   outer loop
     vertex  2.000000e+01  0.000000e+00  1.500000e+01
     vertex  1.328184e+01 -6.970848e+00  1.500000e+01
     vertex  2.000000e+01 -2.500000e+01  1.500000e+01
   endloop
 endfacet
 facet normal  0.000000e+00  0.000000e+00  1.000000e+00
   outer loop
     vertex  2.410734e+00  1.985418e+01  1.500000e+01
     vertex -2.410734e+00  1.985418e+01  1.500000e+01
     vertex -1.808050e+00  1.489063e+01  1.500000e+01
   endloop
 endfacet
 facet normal  0.000000e+00  0.000000e+00  1.000000e+00
   outer loop
     vertex  2.410734e+00  1.985418e+01  1.500000e+01
     vertex -1.808050e+00  1.489063e+01  1.500000e+01
     vertex  1.808050e+00  1.489063e+01  1.500000e+01
   endloop
 endfacet
 facet normal  0.000000e+00  0.000000e+00  1.000000e+00
   outer loop
     vertex  2.410734e+00  1.985418e+01  1.500000e+01
     vertex  1.808050e+00  1.489063e+01  1.500000e+01
     vertex  5.319073e+00  1.402524e+01  1.500000e+01
   endloop
 endfacet
 facet normal  0.000000e+00  0.000000e+00  1.000000e+00
   outer loop
     vertex  1.941884e+01  4.786313e+00  1.500000e+01
     vertex  1.328184e+01  6.970848e+00  1.500000e+01
     vertex  1.456413e+01  3.589735e+00  1.500000e+01
   endloop
 endfacet
 facet normal  0.000000e+00  0.000000e+00  1.000000e+00
   outer loop
     vertex  1.941884e+01  4.786313e+00  1.500000e+01
     vertex  1.456413e+01  3.589735e+00  1.500000e+01
     vertex  1.500000e+01  4.364197e-14  1.500000e+01
   endloop
 endfacet
 facet normal  0.000000e+00  0.000000e+00  1.000000e+00
   outer loop
     vertex  1.941884e+01  4.786313e+00  1.500000e+01
     vertex  1.500000e+01  4.364197e-14  1.500000e+01
     vertex  2.000000e+01  0.000000e+00  1.500000e+01
   endloop
 endfacet
 facet normal  0.000000e+00  0.000000e+00  1.000000e+00
   outer loop
     vertex  7.092098e+00  1.870032e+01  1.500000e+01
     vertex  2.410734e+00  1.985418e+01  1.500000e+01
     vertex  5.319073e+00  1.402524e+01  1.500000e+01
   endloop
 endfacet
 facet normal  0.000000e+00  0.000000e+00  1.000000e+00
   outer loop
     vertex  7.092098e+00  1.870032e+01  1.500000e+01
     vertex  5.319073e+00  1.402524e+01  1.500000e+01
     vertex  8.520971e+00  1.234476e+01  1.500000e+01
   endloop
 endfacet
 facet normal  0.000000e+00  0.000000e+00  1.000000e+00
   outer loop
     vertex  1.770912e+01  9.294463e+00  1.500000e+01
     vertex  1.328184e+01  6.970848e+00  1.500000e+01
     vertex  1.941884e+01  4.786313e+00  1.500000e+01
   endloop
 endfacet
 facet normal  0.000000e+00  0.000000e+00  1.000000e+00
   outer loop
     vertex  1.136129e+01  1.645968e+01  1.500000e+01
     vertex  7.092098e+00  1.870032e+01  1.500000e+01
     vertex  8.520971e+00  1.234476e+01  1.500000e+01
   endloop
 endfacet
 facet normal  0.000000e+00  0.000000e+00  1.000000e+00
   outer loop
     vertex  1.497021e+01  1.326245e+01  1.500000e+01
     vertex  1.328184e+01  6.970848e+00  1.500000e+01
     vertex  1.770912e+01  9.294463e+00  1.500000e+01
   endloop
 endfacet
 facet normal  0.000000e+00  0.000000e+00  1.000000e+00
   outer loop
     vertex  1.497021e+01  1.326245e+01  1.500000e+01
     vertex  1.136129e+01  1.645968e+01  1.500000e+01
     vertex  8.520971e+00  1.234476e+01  1.500000e+01
   endloop
 endfacet
 facet normal  0.000000e+00  0.000000e+00  1.000000e+00
   outer loop
     vertex  1.497021e+01  1.326245e+01  1.500000e+01
     vertex  8.520971e+00  1.234476e+01  1.500000e+01
     vertex  1.122766e+01  9.946840e+00  1.500000e+01
   endloop
 endfacet
 facet normal  0.000000e+00  0.000000e+00  1.000000e+00
   outer loop
     vertex  1.497021e+01  1.326245e+01  1.500000e+01
     vertex  1.122766e+01  9.946840e+00  1.500000e+01
     vertex  1.328184e+01  6.970848e+00  1.500000e+01
   endloop
 endfacet
 facet normal  9.927089e-01 -1.205366e-01  0.000000e+00
   outer loop
     vertex -1.941884e+01  4.786313e+00  1.500000e+01
     vertex -1.941884e+01  4.786313e+00  2.000000e+01
     vertex -2.000000e+01  0.000000e+00  2.000000e+01
   endloop
 endfacet
 facet normal  9.927089e-01 -1.205366e-01  0.000000e+00
   outer loop
     vertex -1.941884e+01  4.786313e+00  1.500000e+01
     vertex -2.000000e+01  0.000000e+00  2.000000e+01
     vertex -2.000000e+01  0.000000e+00  1.500000e+01
   endloop
 endfacet
 facet normal  9.350162e-01 -3.546049e-01  0.000000e+00
   outer loop
     vertex -1.770912e+01  9.294463e+00  1.500000e+01
     vertex -1.770912e+01  9.294463e+00  2.000000e+01
     vertex -1.941884e+01  4.786313e+00  2.000000e+01
   endloop
 endfacet
 facet normal  8.229839e-01 -5.680647e-01  0.000000e+00
   outer loop
     vertex -1.770912e+01  9.294463e+00  1.500000e+01
     vertex -1.497021e+01  1.326245e+01  2.000000e+01
     vertex -1.770912e+01  9.294463e+00  2.000000e+01
   endloop
 endfacet
 facet normal  9.350162e-01 -3.546049e-01  0.000000e+00
   outer loop
     vertex -1.770912e+01  9.294463e+00  1.500000e+01
     vertex -1.941884e+01  4.786313e+00  2.000000e+01
     vertex -1.941884e+01  4.786313e+00  1.500000e+01
   endloop
 endfacet
 facet normal  8.229839e-01 -5.680647e-01  0.000000e+00
   outer loop
     vertex -1.497021e+01  1.326245e+01  1.500000e+01
     vertex -1.497021e+01  1.326245e+01  2.000000e+01
     vertex -1.770912e+01  9.294463e+00  1.500000e+01
   endloop
 endfacet
 facet normal  6.631227e-01 -7.485107e-01  0.000000e+00
   outer loop
     vertex -1.136129e+01  1.645968e+01  1.500000e+01
     vertex -1.136129e+01  1.645968e+01  2.000000e+01
     vertex -1.497021e+01  1.326245e+01  2.000000e+01
   endloop
 endfacet
 facet normal  6.631227e-01 -7.485107e-01  0.000000e+00
   outer loop
     vertex -1.136129e+01  1.645968e+01  1.500000e+01
     vertex -1.497021e+01  1.326245e+01  2.000000e+01
     vertex -1.497021e+01  1.326245e+01  1.500000e+01
   endloop
 endfacet
 facet normal  4.647232e-01 -8.854560e-01  0.000000e+00
   outer loop
     vertex -7.092098e+00  1.870032e+01  1.500000e+01
     vertex -7.092098e+00  1.870032e+01  2.000000e+01
     vertex -1.136129e+01  1.645968e+01  2.000000e+01
   endloop
 endfacet
 facet normal  2.393157e-01 -9.709418e-01  0.000000e+00
   outer loop
     vertex -7.092098e+00  1.870032e+01  1.500000e+01
     vertex -2.410734e+00  1.985418e+01  2.000000e+01
     vertex -7.092098e+00  1.870032e+01  2.000000e+01
   endloop
 endfacet
 facet normal  4.647232e-01 -8.854560e-01  0.000000e+00
   outer loop
     vertex -7.092098e+00  1.870032e+01  1.500000e+01
     vertex -1.136129e+01  1.645968e+01  2.000000e+01
     vertex -1.136129e+01  1.645968e+01  1.500000e+01
   endloop
 endfacet
 facet normal  2.393157e-01 -9.709418e-01  0.000000e+00
   outer loop
     vertex -2.410734e+00  1.985418e+01  1.500000e+01
     vertex -2.410734e+00  1.985418e+01  2.000000e+01
     vertex -7.092098e+00  1.870032e+01  1.500000e+01
   endloop
 endfacet
 facet normal  1.473706e-15 -1.000000e+00  0.000000e+00
   outer loop
     vertex  2.410734e+00  1.985418e+01  1.500000e+01
     vertex  2.410734e+00  1.985418e+01  2.000000e+01
     vertex -2.410734e+00  1.985418e+01  2.000000e+01
   endloop
 endfacet
 facet normal  1.473706e-15 -1.000000e+00  0.000000e+00
   outer loop
     vertex  2.410734e+00  1.985418e+01  1.500000e+01
     vertex -2.410734e+00  1.985418e+01  2.000000e+01
     vertex -2.410734e+00  1.985418e+01  1.500000e+01
   endloop
 endfacet
 facet normal -2.393157e-01 -9.709418e-01  0.000000e+00
   outer loop
     vertex  7.092098e+00  1.870032e+01  1.500000e+01
     vertex  7.092098e+00  1.870032e+01  2.000000e+01
     vertex  2.410734e+00  1.985418e+01  2.000000e+01
   endloop
 endfacet
 facet normal -2.393157e-01 -9.709418e-01  0.000000e+00
   outer loop
     vertex  7.092098e+00  1.870032e+01  1.500000e+01
     vertex  2.410734e+00  1.985418e+01  2.000000e+01
     vertex  2.410734e+00  1.985418e+01  1.500000e+01
   endloop
 endfacet
 facet normal -4.647232e-01 -8.854560e-01  0.000000e+00
   outer loop
     vertex  1.136129e+01  1.645968e+01  1.500000e+01
     vertex  1.136129e+01  1.645968e+01  2.000000e+01
     vertex  7.092098e+00  1.870032e+01  2.000000e+01
   endloop
 endfacet
 facet normal -4.647232e-01 -8.854560e-01  0.000000e+00
   outer loop
     vertex  1.136129e+01  1.645968e+01  1.500000e+01
     vertex  7.092098e+00  1.870032e+01  2.000000e+01
     vertex  7.092098e+00  1.870032e+01  1.500000e+01
   endloop
 endfacet
 facet normal -6.631227e-01 -7.485107e-01  0.000000e+00
   outer loop
     vertex  1.497021e+01  1.326245e+01  1.500000e+01
     vertex  1.497021e+01  1.326245e+01  2.000000e+01
     vertex  1.136129e+01  1.645968e+01  2.000000e+01
   endloop
 endfacet
 facet normal -6.631227e-01 -7.485107e-01  0.000000e+00
   outer loop
     vertex  1.497021e+01  1.326245e+01  1.500000e+01
     vertex  1.136129e+01  1.645968e+01  2.000000e+01
     vertex  1.136129e+01  1.645968e+01  1.500000e+01
   endloop
 endfacet
 facet normal -8.229839e-01 -5.680647e-01  0.000000e+00
   outer loop
     vertex  1.770912e+01  9.294463e+00  1.500000e+01
     vertex  1.770912e+01  9.294463e+00  2.000000e+01
     vertex  1.497021e+01  1.326245e+01  2.000000e+01
   endloop
 endfacet
 facet normal -9.350162e-01 -3.546049e-01  0.000000e+00
   outer loop
     vertex  1.770912e+01  9.294463e+00  1.500000e+01
     vertex  1.941884e+01  4.786313e+00  2.000000e+01
     vertex  1.770912e+01  9.294463e+00  2.000000e+01
   endloop
 endfacet
 facet normal -8.229839e-01 -5.680647e-01  0.000000e+00
   outer loop
     vertex  1.770912e+01  9.294463e+00  1.500000e+01
     vertex  1.497021e+01  1.326245e+01  2.000000e+01
     vertex  1.497021e+01  1.326245e+01  1.500000e+01
   endloop
 endfacet
 facet normal -9.350162e-01 -3.546049e-01  0.000000e+00
   outer loop
     vertex  1.941884e+01  4.786313e+00  1.500000e+01
     vertex  1.941884e+01  4.786313e+00  2.000000e+01
     vertex  1.770912e+01  9.294463e+00  1.500000e+01
   endloop
 endfacet
 facet normal -9.927089e-01 -1.205367e-01 -5.917005e-08
   outer loop
     vertex  2.000000e+01  0.000000e+00  1.500000e+01
     vertex  2.000000e+01  0.000000e+00  2.000000e+01
     vertex  1.941884e+01  4.786313e+00  2.000000e+01
   endloop
 endfacet
 facet normal -9.927089e-01 -1.205367e-01  0.000000e+00
   outer loop
     vertex  2.000000e+01  0.000000e+00  1.500000e+01
     vertex  1.941884e+01  4.786313e+00  2.000000e+01
     vertex  1.941884e+01  4.786313e+00  1.500000e+01
   endloop
 endfacet
 facet normal  1.000000e+00  0.000000e+00  0.000000e+00
   outer loop
     vertex  2.500000e+01 -2.500000e+01  0.000000e+00
     vertex  2.500000e+01  0.000000e+00  2.000000e+01
     vertex  2.500000e+01 -2.500000e+01  2.000000e+01
   endloop
 endfacet
 facet normal  1.000000e+00  0.000000e+00  0.000000e+00
   outer loop
     vertex  2.500000e+01 -2.500000e+01  0.000000e+00
     vertex  2.500000e+01  0.000000e+00  0.000000e+00
     vertex  2.500000e+01  0.000000e+00  2.000000e+01
   endloop
 endfacet
 facet normal -7.450000e-08 -1.000000e+00  0.000000e+00
   outer loop
     vertex -2.000000e+01 -2.500000e+01  1.500000e+01
     vertex -2.500000e+01 -2.500000e+01  2.000000e+01
     vertex -2.500000e+01 -2.500000e+01  0.000000e+00
   endloop
 endfacet
 facet normal -7.450000e-08 -1.000000e+00 -0.000000e+00
   outer loop
     vertex -2.000000e+01 -2.500000e+01  2.000000e+01
     vertex -2.500000e+01 -2.500000e+01  2.000000e+01
     vertex -2.000000e+01 -2.500000e+01  1.500000e+01
   endloop
 endfacet
 facet normal -0.000000e+00 -1.000000e+00 -2.483333e-08
   outer loop
     vertex  2.500000e+01 -2.500000e+01  0.000000e+00
     vertex -2.000000e+01 -2.500000e+01  1.500000e+01
     vertex -2.500000e+01 -2.500000e+01  0.000000e+00
   endloop
 endfacet
 facet normal -0.000000e+00 -1.000000e+00 -2.483333e-08
   outer loop
     vertex  2.000000e+01 -2.500000e+01  1.500000e+01
     vertex -2.000000e+01 -2.500000e+01  1.500000e+01
     vertex  2.500000e+01 -2.500000e+01  0.000000e+00
   endloop
 endfacet
 facet normal  7.450000e-08 -1.000000e+00  0.000000e+00
   outer loop
     vertex  2.500000e+01 -2.500000e+01  2.000000e+01
     vertex  2.000000e+01 -2.500000e+01  2.000000e+01
     vertex  2.000000e+01 -2.500000e+01  1.500000e+01
   endloop
 endfacet
 facet normal  7.450000e-08 -1.000000e+00  0.000000e+00
   outer loop
     vertex  2.500000e+01 -2.500000e+01  2.000000e+01
     vertex  2.000000e+01 -2.500000e+01  1.500000e+01
     vertex  2.500000e+01 -2.500000e+01  0.000000e+00
   endloop
 endfacet
endsolid
